<svg xmlns="http://www.w3.org/2000/svg" viewBox="0 0 405 246.4"><defs><style>.art-1{fill:#a27b5c;}.art-2{fill:#2c3639;}.art-3{fill:#dcd7c9;}</style></defs><g id="Layer_2" data-name="Layer 2"><g id="logo_cerah" data-name="logo cerah"><path class="art-1" d="M112,246.4H400a5,5,0,0,0,5-5V27.23a5,5,0,0,0-8-4L109,237.39A5,5,0,0,0,112,246.4Z"/><path class="art-2" d="M379.5,0H27.39a5,5,0,0,0-3,9L200.46,139.92a5,5,0,0,0,6,0L382.48,9A5,5,0,0,0,379.5,0Z"/><path class="art-3" d="M0,25.83V241.4a5,5,0,0,0,5,5H61.56a5,5,0,0,0,3-1l116.69-86.76a5,5,0,0,0,0-8L8,21.81A5,5,0,0,0,0,25.83Z"/></g></g></svg>