<svg id="visual" viewBox="0 0 960 540" width="960" height="540" xmlns="http://www.w3.org/2000/svg" xmlns:xlink="http://www.w3.org/1999/xlink" version="1.1"><rect x="0" y="0" width="960" height="540" fill="#E5E2D9"></rect><path d="M0 281L40 305.8C80 330.7 160 380.3 240 373.3C320 366.3 400 302.7 480 258.2C560 213.7 640 188.3 720 193C800 197.7 880 232.3 920 249.7L960 267L960 541L920 541C880 541 800 541 720 541C640 541 560 541 480 541C400 541 320 541 240 541C160 541 80 541 40 541L0 541Z" fill="#DDCCB5" stroke-linecap="round" stroke-linejoin="miter"></path></svg>