<?xml version="1.0" encoding="UTF-8" standalone="no"?>
<svg
   xmlns:dc="http://purl.org/dc/elements/1.1/"
   xmlns:cc="http://creativecommons.org/ns#"
   xmlns:rdf="http://www.w3.org/1999/02/22-rdf-syntax-ns#"
   xmlns:svg="http://www.w3.org/2000/svg"
   xmlns="http://www.w3.org/2000/svg"
   xmlns:sodipodi="http://sodipodi.sourceforge.net/DTD/sodipodi-0.dtd"
   xmlns:inkscape="http://www.inkscape.org/namespaces/inkscape"
   version="1.1"
   id="svg28"
   xml:space="preserve"
   width="610.50665"
   height="586.37335"
   viewBox="0 0 610.50665 586.37335"
   sodipodi:docname="10.svg"
   inkscape:version="1.0.2 (e86c870879, 2021-01-15)"><metadata
     id="metadata34"><rdf:RDF><cc:Work
         rdf:about=""><dc:format>image/svg+xml</dc:format><dc:type
           rdf:resource="http://purl.org/dc/dcmitype/StillImage" /><dc:title></dc:title></cc:Work></rdf:RDF></metadata><defs
     id="defs32" /><sodipodi:namedview
     pagecolor="#ffffff"
     bordercolor="#666666"
     borderopacity="1"
     objecttolerance="10"
     gridtolerance="10"
     guidetolerance="10"
     inkscape:pageopacity="0"
     inkscape:pageshadow="2"
     inkscape:window-width="1366"
     inkscape:window-height="731"
     id="namedview30"
     showgrid="false"
     inkscape:zoom="0.58312223"
     inkscape:cx="400.15235"
     inkscape:cy="223.96858"
     inkscape:window-x="0"
     inkscape:window-y="1"
     inkscape:window-maximized="1"
     inkscape:current-layer="g36" /><g
     id="g36"
     inkscape:groupmode="layer"
     inkscape:label="ink_ext_XXXXXX"
     transform="matrix(1.3333333,0,0,-1.3333333,0,586.37333)"><g
       id="g38"
       transform="scale(0.1)"><path
         d="m 1089.76,2836.75 v -74.97 h 74.96 v 149.93 h -74.96 v -74.96"
         style="fill:#e7e8e5;fill-opacity:1;fill-rule:nonzero;stroke:none"
         id="path40" /><path
         d="m 1089.76,3286.51 v -74.96 h 74.96 v 74.96 h -74.96"
         style="fill:#e7e8e5;fill-opacity:1;fill-rule:nonzero;stroke:none"
         id="path42" /><path
         d="m 1552.97,2461.17 v -74.96 h 74.96 v 74.96 h -74.96"
         style="fill:#e7e8e5;fill-opacity:1;fill-rule:nonzero;stroke:none"
         id="path44" /><path
         d="m 1164.72,3136.59 v -74.96 h -74.96 v -74.96 h 74.96 v -74.96 h 74.96 74.96 v -74.96 h 74.96 v 74.96 h 74.97 v 74.96 74.96 h -74.97 v -74.96 h -74.96 -74.96 v 74.96 74.96 74.96 h -74.96 v -74.96"
         style="fill:#e7e8e5;fill-opacity:1;fill-rule:nonzero;stroke:none"
         id="path46" /><path
         d="m 1314.64,3286.51 h -74.96 v -74.96 h 149.92 v 74.96 h -74.96"
         style="fill:#e7e8e5;fill-opacity:1;fill-rule:nonzero;stroke:none"
         id="path48" /><path
         d="m 1651.97,2683.9 h 40.27 v 74.96 h -80.55 v -74.96 h 40.28"
         style="fill:#e7e8e5;fill-opacity:1;fill-rule:nonzero;stroke:none"
         id="path50" /><path
         d="m 1389.6,3136.59 h 74.97 v 74.96 h -74.97 v -74.96"
         style="fill:#e7e8e5;fill-opacity:1;fill-rule:nonzero;stroke:none"
         id="path52" /><path
         d="m 1914.33,2836.75 h 74.96 v 74.96 h -74.96 v -74.96"
         style="fill:#e7e8e5;fill-opacity:1;fill-rule:nonzero;stroke:none"
         id="path54" /><path
         d="m 2064.25,3736.28 h -74.96 v -74.96 h 74.96 v 74.96"
         style="fill:#e7e8e5;fill-opacity:1;fill-rule:nonzero;stroke:none"
         id="path56" /><path
         d="m 1614.49,3136.59 v 74.96 h 74.96 v 74.96 h -74.96 v 74.96 h -74.96 v -74.96 h -74.96 v -74.96 h 74.96 v -74.96 -74.96 -74.96 -74.96 h 74.96 v 74.96 74.96 h 74.96 v 74.96 h -74.96"
         style="fill:#e7e8e5;fill-opacity:1;fill-rule:nonzero;stroke:none"
         id="path58" /><path
         d="m 1989.29,2386.98 h 74.96 v 74.96 h -149.92 v -74.96 h 74.96"
         style="fill:#e7e8e5;fill-opacity:1;fill-rule:nonzero;stroke:none"
         id="path60" /><path
         d="m 1839.37,3736.28 v -74.96 h 74.96 v 74.96 h -74.96"
         style="fill:#e7e8e5;fill-opacity:1;fill-rule:nonzero;stroke:none"
         id="path62" /><path
         d="m 1895.59,3136.59 v 74.96 h -74.96 v 74.96 h -74.96 v -74.96 -74.96 h -74.96 v -74.96 h 74.96 74.96 v 74.96 h 74.96"
         style="fill:#e7e8e5;fill-opacity:1;fill-rule:nonzero;stroke:none"
         id="path64" /><path
         d="m 2243.74,3286.51 v -74.96 h 74.95 v 74.96 h -74.95"
         style="fill:#e7e8e5;fill-opacity:1;fill-rule:nonzero;stroke:none"
         id="path66" /><path
         d="m 1466.72,2911.71 v -74.96 h 74.97 v 74.96 h -74.97"
         style="fill:#e7e8e5;fill-opacity:1;fill-rule:nonzero;stroke:none"
         id="path68" /><path
         d="m 1839.37,3361.47 v 74.96 h 74.96 v 74.96 h 74.96 74.96 v 74.97 h -74.96 v 74.96 h -74.96 v -74.96 h -74.96 v -74.97 h -74.96 v -74.96 h -74.96 v -74.96 h 74.96 74.96"
         style="fill:#e7e8e5;fill-opacity:1;fill-rule:nonzero;stroke:none"
         id="path70" /><path
         d="m 1839.37,2836.75 v 74.96 h 74.96 v 74.96 h -74.96 -74.96 v -74.96 h -74.96 v -74.96 h 74.96 74.96"
         style="fill:#e7e8e5;fill-opacity:1;fill-rule:nonzero;stroke:none"
         id="path72" /><path
         d="m 2064.25,2536.94 v 74.96 h -149.92 v 74.96 h -74.96 v -74.96 h -74.96 v -74.96 h -74.96 -74.96 v -74.96 h 74.96 74.96 74.96 v 74.96 h 74.96 v -74.96 h 74.96 v 74.96 h 74.96"
         style="fill:#e7e8e5;fill-opacity:1;fill-rule:nonzero;stroke:none"
         id="path74" /><path
         d="m 1764.41,3661.32 v 74.96 h -149.92 v -74.96 h -74.96 v -74.96 h 74.96 74.96 v 74.96 h 74.96"
         style="fill:#e7e8e5;fill-opacity:1;fill-rule:nonzero;stroke:none"
         id="path76" /><path
         d="m 1764.41,3586.36 h -74.96 v -74.97 h 74.96 v 74.97"
         style="fill:#e7e8e5;fill-opacity:1;fill-rule:nonzero;stroke:none"
         id="path78" /><path
         d="m 1951.81,3286.51 h -74.96 v -224.88 h 149.92 v 74.96 h -74.96 v 74.96 h 74.96 v 74.96 h 74.96 v 74.96 h -74.96 v 74.96 h -74.96 v -74.96 -74.96"
         style="fill:#e7e8e5;fill-opacity:1;fill-rule:nonzero;stroke:none"
         id="path80" /><path
         d="m 1614.49,3511.39 v -74.96 h 74.96 v 74.96 h -74.96"
         style="fill:#e7e8e5;fill-opacity:1;fill-rule:nonzero;stroke:none"
         id="path82" /><path
         d="m 1914.33,2761.78 v -74.96 h 149.92 v 74.96 h 74.96 74.97 v 74.97 h -74.97 -74.96 -74.96 v -74.97 h -74.96"
         style="fill:#e7e8e5;fill-opacity:1;fill-rule:nonzero;stroke:none"
         id="path84" /><path
         d="m 2318.69,2986.67 v 74.96 h -74.96 v -74.96 h 74.96"
         style="fill:#e7e8e5;fill-opacity:1;fill-rule:nonzero;stroke:none"
         id="path86" /><path
         d="m 2064.25,2911.71 v 74.96 h -74.96 v -74.96 h 74.96"
         style="fill:#e7e8e5;fill-opacity:1;fill-rule:nonzero;stroke:none"
         id="path88" /><path
         d="m 2251.66,3211.55 h -149.93 v -74.96 h 74.97 v -74.96 h 74.96 v 74.96 74.96"
         style="fill:#e7e8e5;fill-opacity:1;fill-rule:nonzero;stroke:none"
         id="path90" /><path
         d="m 2139.21,2986.67 v -74.96 h 74.97 v 74.96 h -74.97"
         style="fill:#e7e8e5;fill-opacity:1;fill-rule:nonzero;stroke:none"
         id="path92" /><path
         d="m 1556.86,2779.12 v -187.4 h -187.4 v 187.4 z M 1389.61,2535.5 h 224.96 v 301.33 h -301.33 v -75.05 h -73.56 v -74.96 h 73.56 v -74.96 h -73.56 v -74.96 h 73.56 v -1.4 h 1.4 v -73.56 h -74.96 v -74.96 -74.97 h 74.96 v 74.97 h 74.97 v 74.96 73.56"
         style="fill:#e7e8e5;fill-opacity:1;fill-rule:nonzero;stroke:none"
         id="path94" /><path
         d="m 2364.09,2836.75 h 74.97 v 74.96 h -224.88 v -74.96 h 74.95 74.96"
         style="fill:#e7e8e5;fill-opacity:1;fill-rule:nonzero;stroke:none"
         id="path96" /><path
         d="m 2364.09,3136.59 h 74.97 v 149.92 h -74.97 v -74.96 -74.96"
         style="fill:#e7e8e5;fill-opacity:1;fill-rule:nonzero;stroke:none"
         id="path98" /><path
         d="m 1767.21,2758.86 h -74.97 v -149.92 h 74.97 v 74.96 74.96"
         style="fill:#e7e8e5;fill-opacity:1;fill-rule:nonzero;stroke:none"
         id="path100" /><path
         d="m 2514.02,2761.78 v 74.97 h -74.96 v -74.97 h 74.96"
         style="fill:#e7e8e5;fill-opacity:1;fill-rule:nonzero;stroke:none"
         id="path102" /><path
         d="m 2514.02,2986.67 v 74.96 h -74.96 v -149.92 h 74.96 v 74.96"
         style="fill:#e7e8e5;fill-opacity:1;fill-rule:nonzero;stroke:none"
         id="path104" /><path
         d="m 1164.72,2461.94 h -74.96 v -149.93 h 74.96 v 74.97 74.96"
         style="fill:#e7e8e5;fill-opacity:1;fill-rule:nonzero;stroke:none"
         id="path106" /><path
         d="m 2195.44,3417.69 v 262.37 h 262.36 v -262.37 z m 318.58,-56.22 v 374.81 h -374.81 v -374.81 h 374.81"
         style="fill:#e7e8e5;fill-opacity:1;fill-rule:nonzero;stroke:none"
         id="path108" /><path
         d="m 2401.58,3473.91 v 149.93 h -149.92 v -149.93 h 149.92"
         style="fill:#e7e8e5;fill-opacity:1;fill-rule:nonzero;stroke:none"
         id="path110" /><path
         d="m 2195.44,2368.23 v 262.37 h 262.36 v -262.37 z m 318.58,318.59 h -374.81 v -374.81 h 374.81 v 374.81"
         style="fill:#e7e8e5;fill-opacity:1;fill-rule:nonzero;stroke:none"
         id="path112" /><path
         d="m 2401.58,2424.46 v 149.92 h -149.92 v -149.92 h 149.92"
         style="fill:#e7e8e5;fill-opacity:1;fill-rule:nonzero;stroke:none"
         id="path114" /><path
         d="m 1407.41,3680.06 v -262.37 h -262.37 v 262.37 z m -318.59,56.22 v -374.81 h 374.81 v 374.81 h -374.81"
         style="fill:#e7e8e5;fill-opacity:1;fill-rule:nonzero;stroke:none"
         id="path116" /><path
         d="m 1201.27,3623.84 v -149.93 h 149.92 v 149.93 h -149.92"
         style="fill:#e7e8e5;fill-opacity:1;fill-rule:nonzero;stroke:none"
         id="path118" /><path
         d="M 4489.25,2.60156 C 4489.25,1.16016 3484.21,0 2244.73,0 1004.82,0 0,1.16016 0,2.60156 c 0,1.4375 1004.82,2.60938 2244.73,2.60938 1239.48,0 2244.52,-1.17188 2244.52,-2.60938"
         style="fill:#17282f;fill-opacity:1;fill-rule:nonzero;stroke:none"
         id="path134" /><path
         d="m 3951.58,442.5 c 20.03,-8.691 34.77,-27.199 42.16,-47.75 7.39,-20.551 8.06,-42.988 5.6,-64.691 -4.76,-41.977 -28.62,-84.348 -54.3,-117.899 -35.34,30.852 -43.48,84.672 -45.89,112.238 -3.81,43.563 15.75,124.602 52.43,118.102"
         style="fill:#f2575d;fill-opacity:1;fill-rule:nonzero;stroke:none"
         id="path136" /><path
         d="m 3986.13,142.871 c -5.65,23.731 4.22,49.758 22.44,65.988 18.21,16.223 43.65,23.09 67.97,21.231 11.25,-0.86 23.4,-4.141 29.84,-13.399 6.02,-8.652 5.35,-20.742 0.46,-30.082 -4.89,-9.339 -13.33,-16.328 -22.27,-21.929 -30.63,-19.231 -63.8,-32.2 -98.44,-21.809"
         style="fill:#f2575d;fill-opacity:1;fill-rule:nonzero;stroke:none"
         id="path138" /><path
         d="m 3940.8,14.1523 c -0.21,0.0469 0.28,3.1172 1.26,8.629 1.11,6.0585 2.55,13.8906 4.28,23.3085 3.91,19.4805 8.92,47.379 24.06,74.4732 14.93,27.019 35.84,46.917 53.45,56.796 8.74,5.051 16.39,8.071 21.79,9.633 2.66,0.899 4.84,1.238 6.27,1.61 1.45,0.3 2.22,0.41 2.25,0.308 0.25,-0.691 -12.25,-2.941 -29.2,-13.41 -16.99,-10.168 -37.2,-29.859 -51.89,-56.43 -14.84,-26.5309 -20.17,-54.0505 -24.61,-73.4177 -2.14,-9.7734 -3.88,-17.6914 -5.24,-23.1328 -1.33,-5.4375 -2.22,-8.4101 -2.42,-8.3672"
         style="fill:#17282f;fill-opacity:1;fill-rule:nonzero;stroke:none"
         id="path140" /><path
         d="m 3942.13,379.469 c 0.11,0 0.25,-1.278 0.44,-3.758 0.17,-2.801 0.37,-6.379 0.63,-10.82 0.51,-9.399 1.06,-23 1.61,-39.832 1.08,-33.629 1.94,-80.129 1.72,-131.477 -0.23,-51.371 -1.49,-97.8632 -2.87,-131.4922 -0.68,-16.8085 -1.35,-30.4101 -1.94,-39.8007 -0.3,-4.4375 -0.54,-8.0274 -0.73,-10.8203 -0.21,-2.4688 -0.36,-3.75786 -0.47,-3.75786 -0.1,0.00781 -0.15,1.30859 -0.15,3.78906 0.04,2.8008 0.1,6.3789 0.16,10.8398 0.24,9.7813 0.56,23.2891 0.97,39.8204 0.83,33.6289 1.74,80.1018 1.97,131.4418 0.21,51.308 -0.3,97.777 -0.83,131.41 -0.26,16.539 -0.47,30.047 -0.63,39.84 -0.02,4.449 -0.05,8.039 -0.06,10.839 0.01,2.481 0.08,3.778 0.18,3.778"
         style="fill:#17282f;fill-opacity:1;fill-rule:nonzero;stroke:none"
         id="path142" /><path
         d="m 3924.97,117.32 c -8.04,50.789 -42.27,96.719 -88.65,118.93 -11.81,5.66 -27.24,9.359 -36.94,0.57 -9.73,-8.8 -7.55,-24.601 -2.8,-36.828 19.8,-50.863 72.98,-86.773 127.56,-86.121"
         style="fill:#f2575d;fill-opacity:1;fill-rule:nonzero;stroke:none"
         id="path144" /><path
         d="m 3842.05,196.43 c 0.09,0.191 2.75,-0.981 7.5,-3.27 2.38,-1.129 5.29,-2.519 8.48,-4.519 3.17,-1.981 7.01,-3.922 10.79,-6.762 3.86,-2.727 8.15,-5.629 12.34,-9.297 4.4,-3.422 8.67,-7.562 13.14,-11.93 8.71,-8.98 17.48,-19.691 24.97,-32.082 7.37,-12.461 12.71,-25.25 16.44,-37.1911 1.68,-6.0391 3.3,-11.7578 4.15,-17.2695 1.21,-5.4375 1.64,-10.6094 2.13,-15.3086 0.65,-4.6914 0.43,-8.9805 0.59,-12.7188 0.17,-3.75 -0.07,-6.9804 -0.28,-9.6132 -0.39,-5.2579 -0.71,-8.1485 -0.92,-8.129 -0.69,0.0196 0.52,11.6719 -1.55,30.2422 -0.61,4.6289 -1.17,9.6993 -2.46,15.0469 -0.93,5.4024 -2.62,11.0117 -4.35,16.9219 -3.82,11.6992 -9.14,24.2112 -16.38,36.4412 -7.35,12.168 -15.9,22.75 -24.36,31.68 -4.35,4.367 -8.49,8.508 -12.75,11.969 -4.06,3.711 -8.23,6.66 -11.96,9.468 -15.19,10.883 -25.83,15.731 -25.52,16.321"
         style="fill:#17282f;fill-opacity:1;fill-rule:nonzero;stroke:none"
         id="path146" /><path
         d="m 1265.18,2.46094 c -0.79,-0.10156 -2.83,10.89846 -6.84,28.48046 -4,17.5781 -10.29,41.6797 -19.29,67.6289 -9.06,25.9417 -19.09,48.7497 -26.87,65.0117 -7.77,16.27 -13,26.16 -12.31,26.559 0.55,0.328 6.92,-8.942 15.59,-24.891 8.68,-15.949 19.36,-38.758 28.51,-64.969 9.1,-26.2224 14.88,-50.7302 17.98,-68.6091 3.11,-17.9024 3.87,-29.12112 3.23,-29.21096"
         style="fill:#17282f;fill-opacity:1;fill-rule:nonzero;stroke:none"
         id="path148" /><path
         d="m 1353.92,435.23 c 0.35,-0.078 -0.54,-6.121 -2.47,-16.96 -1.98,-10.829 -4.7,-26.52 -7.87,-45.93 -6.36,-38.82 -13.75,-92.688 -18.36,-152.508 -4.55,-59.863 -5.44,-114.223 -5.06,-153.5625 0.17,-19.6679 0.48,-35.5898 0.78,-46.5976 0.26,-11.01174 0.23,-17.11331 -0.13,-17.13284 -0.36,-0.01953 -1.01,6.05078 -1.89,17.03124 -0.93,10.9922 -1.79,26.9219 -2.44,46.6211 -1.33,39.4106 -1.02,93.9806 3.55,154.0276 4.62,60.031 12.62,114 19.92,152.75 3.64,19.383 6.92,34.992 9.51,45.703 2.54,10.738 4.11,16.629 4.46,16.558"
         style="fill:#17282f;fill-opacity:1;fill-rule:nonzero;stroke:none"
         id="path150" /><path
         d="m 1496.28,186.129 c 0.64,-0.539 -6.43,-9.316 -16.61,-24.297 -10.2,-14.953 -23.1,-36.441 -34.21,-61.691 -11.04,-25.2816 -18.1,-49.3402 -22.18,-66.9613 -4.12,-17.6406 -5.77,-28.77736 -6.61,-28.68751 -0.59,0.05859 -0.23,11.41011 3,29.43751 3.21,18.0117 9.81,42.6289 21.02,68.3123 11.28,25.629 24.91,47.18 35.99,61.727 11.06,14.601 19.16,22.562 19.6,22.16"
         style="fill:#17282f;fill-opacity:1;fill-rule:nonzero;stroke:none"
         id="path152" /><path
         d="m 3239.7,153.551 c 0.6,0.351 5.75,-7.199 13.18,-19.93 7.43,-12.73 17.04,-30.711 26.56,-51.0897 9.52,-20.4024 17.12,-39.3125 22.11,-53.1797 4.99,-13.8828 7.47,-22.67191 6.82,-22.90238 -0.7,-0.25781 -4.39,8.06248 -10.23,21.54298 -5.85,13.4687 -13.95,32.0469 -23.41,52.3281 -9.48,20.2817 -18.52,38.4097 -25.09,51.5507 -6.57,13.129 -10.59,21.309 -9.94,21.68"
         style="fill:#17282f;fill-opacity:1;fill-rule:nonzero;stroke:none"
         id="path154" /><path
         d="m 3423.69,335.719 c 0.34,-0.09 -0.57,-4.707 -2.53,-12.957 -2.15,-9.27 -4.87,-21 -8.11,-34.981 -6.66,-29.562 -14.77,-70.652 -20.85,-116.461 -6.04,-45.828 -8.89,-87.6208 -10.15,-117.8903 -0.5,-14.3477 -0.93,-26.3789 -1.26,-35.8906 -0.26,-8.48051 -0.57,-13.16801 -0.93,-13.16801 -0.36,-0.01171 -0.73,4.67969 -1.09,13.16801 -0.41,8.4922 -0.57,20.7929 -0.4,35.9922 0.32,30.3984 2.6,72.4297 8.66,118.4687 6.12,46.031 14.85,87.199 22.44,116.641 3.78,14.711 7.14,26.558 9.74,34.648 2.56,8.113 4.13,12.543 4.48,12.43"
         style="fill:#17282f;fill-opacity:1;fill-rule:nonzero;stroke:none"
         id="path156" /><path
         d="m 2092.67,254.391 c 0.24,0.261 3.44,-2.239 9.04,-7.012 5.66,-4.707 13.4,-12.07 22.49,-21.609 18.2,-19.008 40.98,-47.84 60.25,-83.27 19.18,-35.5 30.9,-70.3281 36.9,-95.9609 3.03,-12.8282 4.97,-23.3203 5.82,-30.6289 0.94,-7.30082 1.29,-11.3477 0.94,-11.4102 -0.92,-0.14062 -3.43,15.9219 -10.33,41.1211 -6.85,25.1797 -18.97,59.3399 -37.91,94.3909 -19.03,34.988 -41.03,63.789 -58.39,83.277 -17.34,19.531 -29.44,30.402 -28.81,31.102"
         style="fill:#17282f;fill-opacity:1;fill-rule:nonzero;stroke:none"
         id="path158" /><path
         d="m 2265.9,360.77 c 0.36,-0.02 0.5,-5.071 0.43,-14.2 -0.03,-10.109 -0.08,-23.078 -0.12,-38.621 0.09,-32.597 1.34,-77.617 5.63,-127.148 4.35,-49.539 10.91,-94.1018 16.46,-126.219 2.74,-15.3007 5.02,-28.0625 6.8,-38.0234 1.64,-8.96876 2.39,-13.97657 2.04,-14.0586 -0.35,-0.07812 -1.77,4.78125 -4.02,13.6406 -2.3,8.8399 -5.21,21.7383 -8.44,37.7696 -6.5,32.0312 -13.66,76.7108 -18.03,126.4418 -4.31,49.73 -4.98,94.957 -4.13,127.64 0.42,16.34 1.05,29.547 1.78,38.656 0.69,9.114 1.24,14.141 1.6,14.122"
         style="fill:#17282f;fill-opacity:1;fill-rule:nonzero;stroke:none"
         id="path160" /><path
         d="m 2418.96,148.75 c 1.45,-0.781 -15.76,-30.789 -27.56,-71.3594 C 2379.29,36.9102 2377.46,2.37109 2375.81,2.5 c -0.64,0.03125 -1.01,8.6992 0.22,22.6602 1.21,13.9414 4.33,33.1523 10.37,53.7109 6.08,20.5391 13.88,38.3709 20.44,50.7309 6.54,12.39 11.56,19.468 12.12,19.148"
         style="fill:#17282f;fill-opacity:1;fill-rule:nonzero;stroke:none"
         id="path162" /><path
         d="M 257.758,32.332 H 373.91 V 954 H 257.758 Z"
         style="fill:#33535f;fill-opacity:1;fill-rule:nonzero;stroke:none"
         id="path164" /><path
         d="m 373.91,32.332 c 0,0 -0.113,1.6875 -0.172,4.8203 -0.047,3.3086 -0.105,7.9063 -0.179,13.8282 -0.082,12.3008 -0.2,30.1015 -0.356,52.9805 -0.18,46.121 -0.437,112.691 -0.762,195.418 -0.281,165.473 -0.671,395.48 -1.117,654.621 l 2.586,-2.59 c -37.082,0 -76.332,-0.008 -116.097,-0.008 h -0.028 -0.012 -0.003 -0.004 L 260.367,954 C 259.742,550.281 259.199,200.672 258.941,32.332 l -1.175,1.1797 c 37.507,-0.3008 66.379,-0.5195 86.101,-0.6797 9.68,-0.1132 17.106,-0.2031 22.324,-0.2734 5.039,-0.0898 7.719,-0.2266 7.719,-0.2266 0,0 -2.383,-0.1523 -7.297,-0.2422 -5.156,-0.0585 -12.492,-0.1484 -22.054,-0.2695 -19.879,-0.1601 -48.981,-0.3789 -86.793,-0.6797 h -1.184 v 1.1914 c -0.258,168.34 -0.801,517.949 -1.426,921.668 l 2.61,2.602 h 0.004 0.003 0.012 0.028 c 39.765,-0.012 79.015,-0.012 116.097,-0.02 h 2.594 L 376.5,954 c -0.445,-259.891 -0.836,-490.551 -1.117,-656.488 -0.324,-82.473 -0.586,-148.84 -0.762,-194.821 -0.156,-22.6324 -0.273,-40.2301 -0.355,-52.4019 -0.078,-5.7774 -0.133,-10.2578 -0.176,-13.4883 -0.059,-3.0195 -0.18,-4.4688 -0.18,-4.4688"
         style="fill:#17282f;fill-opacity:1;fill-rule:nonzero;stroke:none"
         id="path166" /><path
         d="M 371.43,893.242 H 260.273 c 0.02,11.899 0.036,23.817 0.055,35.828 37.215,0.02 74.235,0.039 111.039,0.059 0.02,-12.027 0.039,-24 0.063,-35.887"
         style="fill:#20353d;fill-opacity:1;fill-rule:nonzero;stroke:none"
         id="path168" /><path
         d="m 373.91,893.242 h -2.48 c -0.024,11.887 -0.043,23.86 -0.063,35.887 0.836,0 1.707,0 2.543,0 v -35.887 m -113.637,0 h -2.515 v 35.828 c 0.894,0 1.676,0 2.57,0 -0.019,-12.011 -0.035,-23.929 -0.055,-35.828"
         style="fill:#0f191d;fill-opacity:1;fill-rule:nonzero;stroke:none"
         id="path170" /><path
         d="m 2727.78,32.332 h 116.16 V 954 h -116.16 z"
         style="fill:#33535f;fill-opacity:1;fill-rule:nonzero;stroke:none"
         id="path172" /><path
         d="m 2843.94,32.332 c 0,0 -0.12,1.6875 -0.18,4.8203 -0.04,3.3086 -0.1,7.9063 -0.18,13.8282 -0.08,12.3008 -0.2,30.1015 -0.36,52.9805 -0.17,46.121 -0.44,112.691 -0.76,195.418 -0.28,165.473 -0.67,395.48 -1.11,654.621 l 2.59,-2.59 c -37.09,0 -76.34,-0.008 -116.11,-0.008 h -0.02 -0.02 -0.01 l 2.61,2.598 c -0.62,-403.719 -1.16,-753.328 -1.42,-921.668 l -1.19,1.1797 c 37.52,-0.3008 66.39,-0.5195 86.11,-0.6797 9.68,-0.1132 17.11,-0.2031 22.32,-0.2734 5.04,-0.0898 7.73,-0.2266 7.73,-0.2266 0,0 -2.39,-0.1523 -7.3,-0.2422 -5.16,-0.0585 -12.5,-0.1484 -22.06,-0.2695 -19.88,-0.1601 -48.98,-0.3789 -86.8,-0.6797 h -1.17 l -0.01,1.1914 c -0.25,168.34 -0.8,517.949 -1.42,921.668 l 2.6,2.602 h 0.01 0.02 0.02 c 39.77,-0.012 79.02,-0.012 116.11,-0.02 h 2.58 V 954 c -0.44,-259.891 -0.83,-490.551 -1.12,-656.488 -0.32,-82.473 -0.57,-148.84 -0.76,-194.821 -0.16,-22.6324 -0.27,-40.2301 -0.35,-52.4019 -0.08,-5.7774 -0.14,-10.2578 -0.18,-13.4883 -0.06,-3.0195 -0.17,-4.4688 -0.17,-4.4688"
         style="fill:#17282f;fill-opacity:1;fill-rule:nonzero;stroke:none"
         id="path174" /><path
         d="m 2661.98,993.102 h -116.14 v 768.288 h 116.14 V 993.102"
         style="fill:#33535f;fill-opacity:1;fill-rule:nonzero;stroke:none"
         id="path176" /><path
         d="m 2661.98,993.102 c -0.05,0.058 -0.1,1.41 -0.16,4.019 -0.05,2.82 -0.11,6.629 -0.18,11.509 -0.08,10.32 -0.2,25.1 -0.35,44.09 -0.18,38.42 -0.44,93.8 -0.75,162.63 -0.29,137.8 -0.69,329.46 -1.13,546.04 l 2.57,-2.58 c -37.17,-0.01 -76.32,-0.02 -116.1,-0.03 5.12,5.22 1.42,1.31 2.56,2.4 v -0.23 -0.49 -0.98 -1.93 -3.88 -7.75 -15.44 c 0,-10.27 0,-20.5 0,-30.67 -0.01,-20.36 -0.02,-40.54 -0.02,-60.49 -0.03,-39.91 -0.05,-78.97 -0.07,-116.97 -0.1,-75.99 -0.19,-147.79 -0.27,-213.88 -0.41,-131.96 -0.75,-241.09 -0.97,-315.368 l -1.27,1.269 c 37.26,-0.32 66.1,-0.562 85.91,-0.719 9.69,-0.132 17.15,-0.23 22.44,-0.312 5.08,-0.09 7.79,-0.238 7.79,-0.238 0,0 -2.39,-0.172 -7.33,-0.262 -5.23,-0.059 -12.6,-0.168 -22.16,-0.301 -19.97,-0.16 -49.07,-0.41 -86.65,-0.719 l -1.27,-0.007 -0.01,1.289 c -0.22,74.278 -0.56,183.408 -0.96,315.368 -0.08,66.09 -0.17,137.89 -0.27,213.88 -0.02,38 -0.05,77.06 -0.07,116.97 -0.01,19.95 -0.02,40.13 -0.02,60.49 0,10.17 -0.01,20.4 -0.01,30.67 v 15.44 7.75 3.88 1.93 0.98 0.49 0.23 c 1.18,1.23 -2.63,-2.39 2.65,2.82 39.78,-0.01 78.93,-0.02 116.1,-0.03 h 2.59 v -2.58 c -0.45,-217.32 -0.85,-409.62 -1.13,-547.88 -0.31,-68.59 -0.58,-123.76 -0.75,-162.04 -0.16,-18.74 -0.28,-33.33 -0.36,-43.51 -0.07,-4.74 -0.12,-8.448 -0.17,-11.179 -0.06,-2.5 -0.12,-3.742 -0.18,-3.679"
         style="fill:#17282f;fill-opacity:1;fill-rule:nonzero;stroke:none"
         id="path178" /><path
         d="M 596.195,993.102 H 480.051 V 1761.39 H 596.195 V 993.102"
         style="fill:#33535f;fill-opacity:1;fill-rule:nonzero;stroke:none"
         id="path180" /><path
         d="m 596.195,993.102 c -0.054,0.058 -0.109,1.41 -0.168,4.019 -0.047,2.82 -0.101,6.629 -0.175,11.509 -0.079,10.32 -0.204,25.1 -0.352,44.09 -0.176,38.42 -0.437,93.8 -0.754,162.63 -0.285,137.8 -0.683,329.46 -1.129,546.04 l 2.578,-2.58 c -37.175,-0.01 -76.332,-0.02 -116.101,-0.03 5.117,5.22 1.418,1.31 2.558,2.4 v -0.23 -0.49 -0.98 -1.93 -3.88 -7.75 -15.44 c 0,-10.27 -0.004,-20.5 -0.004,-30.67 -0.003,-20.36 -0.015,-40.54 -0.019,-60.49 -0.024,-39.91 -0.051,-78.97 -0.07,-116.97 -0.098,-75.99 -0.192,-147.79 -0.274,-213.88 -0.402,-131.96 -0.734,-241.09 -0.961,-315.368 l -1.273,1.269 c 37.254,-0.32 66.105,-0.562 85.906,-0.719 9.688,-0.132 17.152,-0.23 22.441,-0.312 5.079,-0.09 7.797,-0.238 7.797,-0.238 0,0 -2.39,-0.172 -7.336,-0.262 -5.226,-0.059 -12.593,-0.168 -22.156,-0.301 -19.973,-0.16 -49.074,-0.41 -86.652,-0.719 l -1.27,-0.007 -0.008,1.289 c -0.222,74.278 -0.554,183.408 -0.96,315.368 -0.083,66.09 -0.176,137.89 -0.274,213.88 -0.019,38 -0.043,77.06 -0.066,116.97 -0.012,19.95 -0.016,40.13 -0.02,60.49 0,10.17 -0.008,20.4 -0.008,30.67 v 15.44 7.75 3.88 1.93 0.98 0.49 0.23 c 1.18,1.23 -2.64,-2.39 2.649,2.82 39.769,-0.01 78.926,-0.02 116.101,-0.03 h 2.59 l -0.004,-2.58 c -0.449,-217.32 -0.843,-409.62 -1.129,-547.88 -0.316,-68.59 -0.578,-123.76 -0.757,-162.04 -0.153,-18.74 -0.266,-33.33 -0.352,-43.51 -0.07,-4.74 -0.125,-8.448 -0.172,-11.179 -0.058,-2.5 -0.113,-3.742 -0.176,-3.679"
         style="fill:#17282f;fill-opacity:1;fill-rule:nonzero;stroke:none"
         id="path182" /><path
         d="m 250.93,1726.07 h 2635.11 v 122.98 H 250.93 Z"
         style="fill:#33535f;fill-opacity:1;fill-rule:nonzero;stroke:none"
         id="path184" /><path
         d="m 2886.04,1726.07 c 0,0 -0.09,2.51 -0.14,7.49 -0.04,5.05 -0.1,12.53 -0.17,22.6 -0.09,20.26 -0.23,50.91 -0.43,92.89 l 0.74,-0.74 c -324.05,-0.23 -1381.86,-0.97 -2634.977,-1.87 h -0.133 l 2.605,2.61 c -0.004,-42.13 -0.004,-84.04 -0.004,-122.98 l -2.601,2.59 c 733.519,-0.42 1391.91,-0.8 1867.04,-1.08 237.71,-0.33 429.57,-0.6 562.09,-0.78 66.26,-0.16 117.66,-0.28 152.6,-0.37 17.41,-0.08 30.69,-0.14 39.73,-0.19 8.97,-0.06 13.65,-0.17 13.65,-0.17 0,0 -4.44,-0.13 -13.28,-0.19 -8.96,-0.05 -22.13,-0.11 -39.39,-0.18 -34.8,-0.09 -86,-0.21 -151.99,-0.38 -132.38,-0.18 -324.03,-0.45 -561.49,-0.78 -475.62,-0.27 -1134.683,-0.65 -1868.96,-1.08 h -2.602 v 2.61 c -0.004,38.94 -0.004,80.85 -0.004,122.98 v 2.6 h 2.606 0.133 c 1253.117,-0.89 2310.927,-1.64 2634.977,-1.87 h 0.74 l -0.01,-0.73 c -0.19,-42.17 -0.33,-72.96 -0.42,-93.31 -0.08,-10.01 -0.13,-17.43 -0.17,-22.44 -0.05,-4.91 -0.14,-7.23 -0.14,-7.23"
         style="fill:#17282f;fill-opacity:1;fill-rule:nonzero;stroke:none"
         id="path186" /><path
         d="m 257.758,1541.59 h 2635.11 v 122.98 H 257.758 Z"
         style="fill:#33535f;fill-opacity:1;fill-rule:nonzero;stroke:none"
         id="path188" /><path
         d="m 2892.87,1541.59 c 0,0 -0.09,2.51 -0.14,7.49 -0.03,5.05 -0.09,12.53 -0.17,22.61 -0.09,20.26 -0.22,50.91 -0.42,92.88 l 0.73,-0.73 c -324.05,-0.23 -1381.86,-0.98 -2634.972,-1.88 h -0.132 l 2.601,2.61 c 0,-42.13 -0.004,-84.03 -0.004,-122.98 l -2.597,2.6 c 733.515,-0.42 1391.904,-0.8 1867.034,-1.08 237.72,-0.33 429.58,-0.6 562.1,-0.78 66.25,-0.16 117.65,-0.29 152.59,-0.37 17.41,-0.08 30.7,-0.14 39.73,-0.19 8.97,-0.06 13.65,-0.18 13.65,-0.18 0,0 -4.43,-0.12 -13.28,-0.18 -8.96,-0.05 -22.13,-0.11 -39.38,-0.19 -34.81,-0.08 -86.01,-0.2 -152,-0.37 -132.38,-0.18 -324.02,-0.45 -561.49,-0.78 -475.62,-0.27 -1134.685,-0.65 -1868.954,-1.08 h -2.606 v 2.6 c 0,38.95 -0.004,80.85 -0.004,122.98 v 2.61 h 2.61 0.132 c 1253.112,-0.89 2310.932,-1.64 2634.972,-1.88 h 0.73 v -0.73 c -0.19,-42.17 -0.33,-72.96 -0.42,-93.3 -0.07,-10.01 -0.13,-17.43 -0.17,-22.44 -0.05,-4.91 -0.14,-7.24 -0.14,-7.24"
         style="fill:#17282f;fill-opacity:1;fill-rule:nonzero;stroke:none"
         id="path190" /><path
         d="m 257.758,1350.28 h 2635.11 v 122.98 H 257.758 Z"
         style="fill:#33535f;fill-opacity:1;fill-rule:nonzero;stroke:none"
         id="path192" /><path
         d="m 2892.87,1350.28 c 0,0 -0.09,2.51 -0.14,7.5 -0.03,5.04 -0.09,12.51 -0.17,22.6 -0.09,20.26 -0.22,50.9 -0.42,92.87 l 0.73,-0.73 c -324.05,-0.22 -1381.86,-0.97 -2634.972,-1.86 h -0.132 l 2.601,2.59 c 0,-42.12 -0.004,-84.03 -0.004,-122.97 l -2.597,2.59 c 733.515,-0.42 1391.904,-0.8 1867.034,-1.07 237.72,-0.33 429.58,-0.61 562.1,-0.78 66.25,-0.17 117.65,-0.3 152.59,-0.37 17.41,-0.09 30.7,-0.15 39.73,-0.19 8.97,-0.06 13.65,-0.18 13.65,-0.18 0,0 -4.43,-0.12 -13.28,-0.19 -8.96,-0.04 -22.13,-0.1 -39.38,-0.18 -34.81,-0.08 -86.01,-0.21 -152,-0.37 -132.38,-0.18 -324.02,-0.46 -561.49,-0.79 -475.62,-0.27 -1134.685,-0.65 -1868.954,-1.07 h -2.606 v 2.6 c 0,38.94 -0.004,80.85 -0.004,122.97 v 2.61 h 2.61 0.132 c 1253.112,-0.89 2310.932,-1.64 2634.972,-1.86 h 0.73 v -0.75 c -0.19,-42.15 -0.33,-72.94 -0.42,-93.3 -0.07,-10 -0.13,-17.42 -0.17,-22.44 -0.05,-4.9 -0.14,-7.23 -0.14,-7.23"
         style="fill:#17282f;fill-opacity:1;fill-rule:nonzero;stroke:none"
         id="path194" /><path
         d="m 257.758,1158.97 h 2635.11 v 122.98 H 257.758 Z"
         style="fill:#33535f;fill-opacity:1;fill-rule:nonzero;stroke:none"
         id="path196" /><path
         d="m 2892.87,1158.97 c 0,0 -0.09,2.51 -0.14,7.49 -0.03,5.05 -0.09,12.53 -0.17,22.61 -0.09,20.25 -0.22,50.9 -0.42,92.88 l 0.73,-0.74 c -324.05,-0.23 -1381.86,-0.97 -2634.972,-1.87 h -0.132 l 2.601,2.61 c 0,-42.13 -0.004,-84.04 -0.004,-122.98 l -2.597,2.6 c 733.515,-0.43 1391.904,-0.81 1867.034,-1.08 237.72,-0.34 429.58,-0.61 562.1,-0.79 66.25,-0.17 117.65,-0.28 152.59,-0.37 17.41,-0.08 30.7,-0.14 39.73,-0.19 8.97,-0.06 13.65,-0.17 13.65,-0.17 0,0 -4.43,-0.13 -13.28,-0.19 -8.96,-0.05 -22.13,-0.11 -39.38,-0.18 -34.81,-0.09 -86.01,-0.21 -152,-0.38 -132.38,-0.18 -324.02,-0.44 -561.49,-0.78 -475.62,-0.27 -1134.685,-0.65 -1868.954,-1.08 h -2.606 v 2.61 c 0,38.94 -0.004,80.85 -0.004,122.98 v 2.6 h 2.61 0.132 c 1253.112,-0.89 2310.932,-1.64 2634.972,-1.87 h 0.73 v -0.73 c -0.19,-42.17 -0.33,-72.96 -0.42,-93.3 -0.07,-10.02 -0.13,-17.44 -0.17,-22.45 -0.05,-4.91 -0.14,-7.23 -0.14,-7.23"
         style="fill:#17282f;fill-opacity:1;fill-rule:nonzero;stroke:none"
         id="path198" /><path
         d="m 143.297,931.602 h 2797.48 v 122.98 H 143.297 Z"
         style="fill:#33535f;fill-opacity:1;fill-rule:nonzero;stroke:none"
         id="path200" /><path
         d="m 2940.78,931.602 c 0,0 -0.09,2.5 -0.13,7.468 -0.04,5.039 -0.09,12.5 -0.17,22.571 -0.09,20.238 -0.22,50.889 -0.41,92.939 l 0.71,-0.71 c -335.85,-0.23 -1461.86,-0.99 -2797.342,-1.89 h -0.137 l 2.601,2.6 c 0,-42.13 -0.004,-84.041 -0.004,-122.978 l -2.597,2.597 c 778.39,-0.418 1477.369,-0.797 1981.869,-1.07 252.42,-0.328 456.15,-0.609 596.88,-0.789 70.36,-0.16 124.95,-0.289 162.05,-0.371 18.5,-0.078 32.61,-0.137 42.19,-0.18 9.52,-0.07 14.49,-0.187 14.49,-0.187 0,0 -4.72,-0.122 -14.12,-0.18 -9.51,-0.043 -23.5,-0.102 -41.84,-0.192 -36.97,-0.078 -91.35,-0.199 -161.45,-0.371 -140.59,-0.179 -344.11,-0.449 -596.27,-0.777 -504.99,-0.273 -1204.655,-0.652 -1983.799,-1.07 L 140.699,929 v 2.602 c -0.004,38.937 -0.004,80.848 -0.004,122.978 v 2.61 h 2.606 0.137 c 1335.482,-0.9 2461.492,-1.66 2797.342,-1.9 h 0.72 v -0.71 c -0.19,-42.23 -0.33,-73.021 -0.42,-93.35 -0.07,-10 -0.13,-17.41 -0.16,-22.41 -0.05,-4.89 -0.14,-7.218 -0.14,-7.218"
         style="fill:#17282f;fill-opacity:1;fill-rule:nonzero;stroke:none"
         id="path202" /><path
         d="M 2841.45,893.242 H 2730.3 c 0.02,12.477 0.04,25.039 0.06,37.637 43.37,0.101 80.52,0.191 111.03,0.262 0.02,-12.711 0.04,-25.352 0.06,-37.899"
         style="fill:#20353d;fill-opacity:1;fill-rule:nonzero;stroke:none"
         id="path204" /><path
         d="m 2843.94,893.242 h -2.49 c -0.02,12.547 -0.04,25.188 -0.06,37.899 0.85,0 1.7,0 2.55,0 v -37.899 m -113.64,0 h -2.52 v 37.629 c 0.86,0 1.72,0.008 2.58,0.008 -0.02,-12.598 -0.04,-25.16 -0.06,-37.637"
         style="fill:#0f191d;fill-opacity:1;fill-rule:nonzero;stroke:none"
         id="path206" /><path
         d="m 2727.78,930.871 v 0.731 h 116.16 v -0.461 c -0.85,0 -1.7,0 -2.55,0 -30.51,-0.071 -67.66,-0.161 -111.03,-0.262 -0.86,0 -1.72,-0.008 -2.58,-0.008"
         style="fill:#0f191d;fill-opacity:1;fill-rule:nonzero;stroke:none"
         id="path208" /><path
         d="m 1427.68,2469.97 -25.09,-161.94 -64.58,-147.39 -95.72,61.12 -34.02,86.03 -28.54,72.15 c 0,0 -101.11,-24.32 -141.37,70.2 -19.44,45.64 -51.825,142.88 -80.122,231.23 -30.425,95.03 17.2,197.48 109.472,235.44 l 9.16,3.78 c 101.22,34.9 187.41,-31.57 219.49,-133.72 l 131.32,-316.9"
         style="fill:#ac5657;fill-opacity:1;fill-rule:nonzero;stroke:none"
         id="path210" /><path
         d="m 1179.59,2379.95 c 0,0 62.05,19.83 109.38,86.17 0,0 -1.15,-80.42 -99.47,-110.87 l -9.91,24.7"
         style="fill:#7c3a3d;fill-opacity:1;fill-rule:nonzero;stroke:none"
         id="path212" /><path
         d="m 1019.99,2608.88 c 2.69,-7.27 11.07,-10.98 18.71,-8.31 7.63,2.67 11.65,10.72 8.95,17.99 -2.69,7.27 -11.07,10.99 -18.7,8.32 -7.64,-2.67 -11.66,-10.73 -8.96,-18"
         style="fill:#17282f;fill-opacity:1;fill-rule:nonzero;stroke:none"
         id="path214" /><path
         d="m 994.305,2647.74 c 2.406,-1.07 9.555,10.76 24.175,16.73 14.51,6.18 28.32,3.07 29.16,5.51 0.45,1.12 -2.57,3.6 -8.64,5.08 -5.98,1.49 -15.17,1.56 -24.24,-2.23 -9.08,-3.79 -15.35,-10.28 -18.338,-15.52 -3.07,-5.29 -3.277,-9.11 -2.117,-9.57"
         style="fill:#17282f;fill-opacity:1;fill-rule:nonzero;stroke:none"
         id="path216" /><path
         d="m 1147.33,2665.66 c 2.7,-7.27 11.07,-10.99 18.72,-8.31 7.62,2.67 11.65,10.72 8.95,17.99 -2.69,7.26 -11.08,10.99 -18.71,8.32 -7.64,-2.68 -11.65,-10.74 -8.96,-18"
         style="fill:#17282f;fill-opacity:1;fill-rule:nonzero;stroke:none"
         id="path218" /><path
         d="m 1138.09,2711.72 c 2.28,-1.33 10.69,9.66 25.86,14 15.09,4.57 28.48,-0.01 29.59,2.32 0.56,1.06 -2.16,3.87 -8.04,5.98 -5.79,2.14 -14.91,3.2 -24.35,0.43 -9.43,-2.79 -16.37,-8.57 -19.91,-13.45 -3.61,-4.92 -4.24,-8.71 -3.15,-9.28"
         style="fill:#17282f;fill-opacity:1;fill-rule:nonzero;stroke:none"
         id="path220" /><path
         d="m 1133.97,2569.59 c -0.28,0.86 -9.99,-1.31 -25.47,-5.48 -3.89,-1.14 -7.72,-1.86 -9.4,0.43 -1.98,2.33 -2.08,6.99 -2.06,12.07 -0.2,10.47 -0.43,21.43 -0.65,32.93 -1.32,46.72 -3.92,84.51 -5.79,84.44 -1.89,-0.07 -2.34,-37.99 -1.02,-84.71 0.42,-11.48 0.8,-22.44 1.19,-32.9 0.33,-4.82 -0.12,-10.63 4.08,-15.43 2.15,-2.37 5.72,-3.27 8.38,-2.93 2.68,0.25 4.8,1.07 6.69,1.72 15.13,5.3 24.33,9.01 24.05,9.86"
         style="fill:#17282f;fill-opacity:1;fill-rule:nonzero;stroke:none"
         id="path222" /><path
         d="m 1110.17,2773.88 c 3.07,-3.38 16.88,4.5 34.86,9.49 17.87,5.34 33.75,6.01 34.56,10.5 0.31,2.12 -3.64,4.87 -10.8,6.41 -7.11,1.56 -17.45,1.57 -28.2,-1.51 -10.75,-3.11 -19.49,-8.62 -24.69,-13.72 -5.24,-5.12 -7.12,-9.55 -5.73,-11.17"
         style="fill:#17282f;fill-opacity:1;fill-rule:nonzero;stroke:none"
         id="path224" /><path
         d="m 973.449,2705.19 c 3.934,-2.26 12.571,5.32 24.606,10.46 11.845,5.55 23.245,6.96 24.175,11.4 0.34,2.11 -2.63,4.76 -8.4,6.06 -5.69,1.32 -14.127,0.84 -22.334,-2.83 -8.199,-3.69 -14.168,-9.66 -16.976,-14.78 -2.868,-5.17 -2.868,-9.17 -1.071,-10.31"
         style="fill:#17282f;fill-opacity:1;fill-rule:nonzero;stroke:none"
         id="path226" /><path
         d="m 1317.55,2713.33 c 1.33,1.37 57.33,46.17 81.98,-19.64 24.66,-65.8 -46.5,-76.98 -47.32,-75.13 -0.82,1.84 -34.66,94.77 -34.66,94.77"
         style="fill:#ac5657;fill-opacity:1;fill-rule:nonzero;stroke:none"
         id="path228" /><path
         d="m 1362.97,2651.02 c 0.21,0.31 1.45,-0.37 3.72,-0.54 2.21,-0.15 5.68,0.47 8.63,3.04 6,5.15 7.72,18.38 3.6,30.36 -2.08,6.05 -5.47,11.29 -9.36,15.21 -3.81,4.07 -8.19,6.26 -11.92,5.57 -3.78,-0.5 -5.48,-3.52 -5.59,-5.67 -0.19,-2.17 0.72,-3.33 0.41,-3.58 -0.12,-0.23 -1.82,0.58 -2.31,3.49 -0.22,1.41 -0.03,3.26 1.04,5.1 1.1,1.88 3.18,3.4 5.72,4.05 5.2,1.55 11.52,-1.41 15.79,-5.72 4.57,-4.23 8.52,-10.06 10.85,-16.85 4.54,-13.42 2.41,-28.37 -6.08,-34.68 -4.17,-2.95 -8.56,-3 -11.14,-2.19 -2.64,0.86 -3.54,2.2 -3.36,2.41"
         style="fill:#7c3a3d;fill-opacity:1;fill-rule:nonzero;stroke:none"
         id="path230" /><path
         d="m 902.082,2787.9 c -2.328,13.75 2.039,29.62 14.012,36.77 -10.352,9.93 -12.66,27.21 -5.278,39.51 7.383,12.3 23.711,18.39 37.344,13.93 -8.949,19.47 8.809,45.45 30.211,44.17 -5.43,11.19 -2.09,25.94 7.633,33.71 9.719,7.76 24.846,7.77 34.556,0 3.99,28.89 40.75,47.64 66.48,33.9 22.1,19.94 59.88,18.97 80.93,-2.07 21.67,7.61 47.74,0.34 62.34,-17.39 14.09,4.47 30.44,0.9 41.37,-9.05 10.92,-9.95 16.02,-25.89 12.88,-40.33 19.7,-1.15 33.81,-25.76 24.84,-43.34 11.58,-0.77 22.39,-8.66 26.65,-19.45 4.25,-10.79 1.74,-23.93 -6.2,-32.39 10.05,2.75 19.08,-8.31 20.02,-18.69 0.94,-10.37 -2.93,-20.61 -3.06,-31.03 -0.11,-8.58 2.31,-17.01 2.72,-25.58 0.78,-16.12 -6.08,-32.38 -18.02,-43.21 l 2.5,-1.26 c 5.13,-7.62 -4.12,-18.12 -13.31,-18.05 -9.18,0.08 -16.96,6.33 -24.44,11.66 -8.57,6.11 -17.94,11.59 -24.18,20.06 -6.25,8.47 -8.39,21.17 -1.6,29.21 -12.74,-0.91 -24.69,7.55 -31.6,18.3 -6.91,10.75 -9.74,23.53 -12.46,36.02 -4.01,18.43 -8.01,36.85 -12.02,55.28 -23.78,-9.12 -52.52,-3.57 -71.21,13.73 -11.47,-19.91 -42.51,-24.61 -59.36,-8.99 2.06,-26.38 -20.15,-52.23 -46.53,-54.16 8.1,-12.38 -10.88,-34.8 -22.64,-43.79 -11.76,-8.99 -32.18,-6.48 -32.18,-6.48 0,0 -17.195,-22.81 -31.695,-22.97 -14.226,-0.16 -37.137,8.72 -34.402,24.88 0,0 -11.977,13.35 -14.301,27.1"
         style="fill:#17282f;fill-opacity:1;fill-rule:nonzero;stroke:none"
         id="path232" /><path
         d="m 1312.63,2879.26 c -0.72,-0.03 0.83,-4.9 -2.98,-11.04 -1.89,-2.93 -5.27,-5.84 -9.84,-6.29 -4.48,-0.53 -10.08,1.46 -13.01,5.86 l -2.39,3.57 -1.9,-3.9 c -2.74,-5.61 -9.44,-10.24 -16.67,-10.16 -8.16,0.08 -15.32,6.35 -17.21,13.08 l -1.12,4.01 -2.92,-2.92 c -3.7,-3.7 -8.78,-5.38 -13.18,-5.32 -4.45,0.02 -8.2,1.76 -10.87,3.73 -5.39,4.11 -6.6,8.43 -7.23,8.15 -0.38,0.03 -0.26,-4.92 5.33,-10.41 2.76,-2.6 7.1,-5.14 12.59,-5.54 5.39,-0.41 11.77,1.27 16.75,5.91 l -4.03,1.09 c 2.24,-8.82 10.93,-16.85 21.83,-17.07 9.54,-0.04 17.78,5.88 21.2,13.32 l -4.28,-0.32 c 4.49,-6.19 11.85,-8.22 17.69,-7.22 6.08,0.99 10.12,5.25 11.91,8.93 3.65,7.88 0.59,12.91 0.33,12.54"
         style="fill:#33535f;fill-opacity:1;fill-rule:nonzero;stroke:none"
         id="path234" /><path
         d="m 1348.06,2821.08 c -0.49,0.25 -1.57,-2.78 -5.82,-5.6 -3.89,-2.68 -12.49,-5.04 -19.18,0.21 l -2.21,1.73 -1.01,-2.65 c -2.04,-5.35 -7.61,-10.51 -14.64,-11.45 -6.85,-1.07 -15.09,3.03 -18.4,10.15 l -1.95,4.2 -2.65,-3.84 c -0.63,-0.92 -1.45,-1.82 -2.41,-2.59 -4.31,-3.51 -10.8,-3.93 -14.92,-1.02 -4.31,2.81 -6.53,8.25 -5.87,12.7 l 0.76,5.03 -4.3,-2.6 c -5.28,-3.19 -11.49,-3.73 -16.47,-2.52 -5.04,1.18 -8.87,4.05 -11.4,6.9 -5.1,5.87 -5.5,10.9 -6.16,10.72 -0.33,0.1 -1.05,-5.31 3.96,-12.49 2.49,-3.45 6.67,-7.17 12.58,-8.92 5.81,-1.75 13.2,-1.52 19.9,2.23 l -3.54,2.42 c -1.1,-6.36 1.65,-13.59 7.66,-17.74 6.12,-4.31 15.06,-3.74 21.12,1.16 1.36,1.1 2.56,2.42 3.49,3.78 l -4.59,0.36 c 4.5,-9.44 14.9,-14.33 23.91,-12.81 9.05,1.5 15.56,8.11 17.8,14.95 l -3.22,-0.92 c 4.46,-3.28 9.62,-3.81 13.65,-3.13 4.1,0.63 7.29,2.46 9.48,4.29 4.41,3.88 4.7,7.45 4.43,7.45"
         style="fill:#33535f;fill-opacity:1;fill-rule:nonzero;stroke:none"
         id="path236" /><path
         d="m 986.113,2927.65 c 0.414,-0.21 1.016,3.44 5.582,7.23 2.25,1.81 5.621,3.5 9.705,3.36 4.01,-0.07 8.8,-2.02 11.76,-6.13 l 2.4,-3.35 0.58,4.13 c 1.04,7.38 6.42,15.77 15.38,19.48 8.69,3.76 21.19,1.28 28.16,-7.48 l 3.01,-3.76 1.25,4.66 c 2.3,8.53 9.08,16.35 18,20.05 8.84,3.85 19.93,2.46 28.35,-3.42 3.44,-2.34 6.3,-5.39 8.43,-8.8 l 1.53,-2.45 2.3,1.7 c 11.25,8.29 27.88,6.87 36.94,-1.73 9.36,-8.59 11.65,-22.37 7.92,-32.23 l -1.4,-3.7 3.83,0.84 c 9.19,2.03 18.21,-0.32 24.6,-4.41 6.5,-4.07 10.39,-9.92 12.52,-14.97 4.21,-10.4 2.37,-17.19 3.08,-17.15 0.18,-0.03 0.75,1.53 1.02,4.63 0.24,3.07 0.13,7.78 -1.84,13.39 -1.91,5.53 -5.83,12.15 -12.88,16.97 -6.91,4.79 -16.82,7.76 -27.39,5.71 l 2.43,-2.85 c 4.57,11.4 2.35,27.06 -8.53,37.4 -10.82,10.33 -29.83,12.18 -43.44,2.33 l 3.82,-0.75 c -2.53,4.09 -5.91,7.68 -9.93,10.42 -9.77,6.86 -22.89,8.48 -33.35,3.85 -10.42,-4.42 -18.11,-13.48 -20.72,-23.58 l 4.26,0.9 c -8.72,10.51 -23.29,13 -33.62,8.32 -10.44,-4.67 -16.16,-14.43 -17.02,-22.96 l 2.98,0.79 c -3.94,4.99 -9.71,6.91 -14.44,6.76 -4.867,-0.14 -8.581,-2.41 -10.874,-4.62 -2.352,-2.26 -3.465,-4.55 -4.004,-6.1 -0.524,-1.58 -0.532,-2.45 -0.399,-2.48"
         style="fill:#33535f;fill-opacity:1;fill-rule:nonzero;stroke:none"
         id="path238" /><path
         d="m 1177.37,2585.51 c -2.43,-0.84 4.06,-16.69 -4.87,-33.53 -8.9,-16.85 -26.53,-22.02 -25.74,-24.29 0.19,-1.08 5.03,-1.53 12.24,1.21 7.09,2.64 16.38,9.09 21.85,19.38 5.44,10.31 5.21,20.97 3.07,27.7 -2.12,6.87 -5.5,10.07 -6.55,9.53"
         style="fill:#17282f;fill-opacity:1;fill-rule:nonzero;stroke:none"
         id="path240" /><path
         d="m 1079.95,2297.5 -79.26,-223.18 18.31,-244 50.47,-421.5 c 0,0 185.69,62.71 194.03,56.46 8.35,-6.26 -82.14,427.33 -82.14,427.33 l 65.46,352.74 -4.23,103.9 -162.64,-51.75"
         style="fill:#bbab8e;fill-opacity:1;fill-rule:nonzero;stroke:none"
         id="path242" /><path
         d="m 1079.95,2297.5 -87.177,-200.12 -179.593,-70.66 -189.098,-58.14 26.922,-135.52 c 5.512,-27.77 33.355,-45.08 60.699,-37.74 l 159.328,42.74 148.429,6.82 77.18,179.38 -16.69,273.24"
         style="fill:#bbab8e;fill-opacity:1;fill-rule:nonzero;stroke:none"
         id="path244" /><path
         d="m 686.117,2024.26 13.203,16.39 c 0,0 24.422,0.11 37.618,-8.2 13.207,-8.3 33.664,-38.66 36.304,-54.5 2.645,-15.85 0,-46.21 0,-46.21 l -90.426,92.52"
         style="fill:#ac5657;fill-opacity:1;fill-rule:nonzero;stroke:none"
         id="path246" /><path
         d="m 510.625,2121.47 c 0,-2.74 169.723,-182.84 169.723,-182.84 l 31.945,-31.55 h 102.648 l -198.031,219.84 -85.39,14.53 -20.895,-19.98"
         style="fill:#17282f;fill-opacity:1;fill-rule:nonzero;stroke:none"
         id="path248" /><path
         d="m 1200.09,1721.36 c -0.16,-0.09 -1.5,2.08 -3.89,6.3 -2.55,4.7 -5.91,10.88 -10.11,18.6 -8.59,16.25 -20.76,39.91 -34.93,69.6 -14.05,29.72 -30.6,65.27 -45.05,106.48 -3.44,10.35 -6.9,21.01 -9.3,32.31 -1.61,5.51 -1.77,11.55 -2.66,17.42 -0.2,5.83 -0.43,11.71 -0.45,17.64 -0.28,23.71 0.32,48.2 1.24,73.28 1.17,31.74 2.82,62.48 4.7,91.69 l 0.1,1.52 1.4,0.62 c 18.26,8.01 35.85,15.73 52.65,23.1 l 0.67,-4.53 c -14.04,1.82 -27.54,3.57 -40.47,5.25 l -3.32,0.42 1.66,2.87 c 25.95,44.68 47.6,81.95 63.09,108.62 7.51,12.64 13.52,22.74 17.93,30.17 1.96,3.16 3.56,5.74 4.87,7.86 1.13,1.76 1.77,2.63 1.87,2.58 0.1,-0.06 -0.33,-1.05 -1.27,-2.92 -1.16,-2.21 -2.57,-4.9 -4.29,-8.19 -4.16,-7.58 -9.81,-17.89 -16.87,-30.78 -15.1,-26.89 -36.19,-64.48 -61.48,-109.54 l -1.64,3.3 c 12.94,-1.57 26.45,-3.21 40.51,-4.92 l 8.51,-1.04 -7.85,-3.49 c -16.76,-7.46 -34.32,-15.27 -52.53,-23.37 l 1.49,2.14 c -1.76,-29.14 -3.36,-59.88 -4.52,-91.56 -0.92,-25.01 -1.56,-49.46 -1.35,-73.02 0,-5.9 0.21,-11.72 0.39,-17.48 0.86,-5.6 0.92,-11.16 2.49,-16.62 2.27,-10.97 5.64,-21.55 8.98,-31.8 14.06,-40.92 30.24,-76.6 43.84,-106.46 13.71,-29.82 25.37,-53.71 33.4,-70.23 3.83,-7.9 6.9,-14.23 9.23,-19.04 2.08,-4.37 3.12,-6.69 2.96,-6.78"
         style="fill:#17282f;fill-opacity:1;fill-rule:nonzero;stroke:none"
         id="path250" /><path
         d="m 610.875,2024.26 c 0,0 -25.738,-18.59 -25.078,-29.15 0.66,-10.57 6.586,-21.79 12.535,-23.76 5.945,-1.98 23.766,-11.22 23.766,-11.22 0,0 -15.84,-15.19 -11.223,-31.03 4.625,-15.84 15.18,-19.8 15.18,-19.8 0,0 0.66,-20.46 6.601,-32.34 5.946,-11.88 25.082,-15.83 25.082,-15.83 0,0 10.559,-21.54 19.801,-32.22 9.238,-10.69 27.723,-13.99 27.723,-13.99 0,0 23.758,-2.64 36.301,5.94 12.539,8.58 26.402,17.16 27.062,46.2 0,0 56.762,28.38 57.422,42.9 0.656,14.52 -5.942,19.14 -5.942,19.14 l -28.378,-5.28 c 0,0 -3.961,15.19 -12.539,16.5 -8.586,1.32 -112.208,-23.76 -112.208,-23.76 0,0 70.625,11.23 72.602,25.08 1.981,13.87 2.641,25.74 -7.922,28.38 -10.558,2.65 -85.785,-5.41 -85.785,-5.41 l -3.941,13.34 c 0,0 20.425,-0.66 20.425,17.16 0,17.82 -11.218,21.78 -11.218,21.78 l -40.266,7.37"
         style="fill:#ac5657;fill-opacity:1;fill-rule:nonzero;stroke:none"
         id="path252" /><path
         d="m 1200.09,2333.16 8.69,-68.9 -53.37,-299.64 54.09,-258.78 280.4,-82.84 110.29,47.52 -37.63,726.29 -100.21,70.39 -38.49,25.85 -144.45,-218.59 -79.32,58.7"
         style="fill:#fafaf9;fill-opacity:1;fill-rule:nonzero;stroke:none"
         id="path254" /><path
         d="m 1454.16,2472.71 70.06,-31.29 248.22,-33.37 133.89,-704.2 16.82,-80.85 256.66,-384.1 c 11.77,-17.62 6.14,-41.52 -12.26,-52.04 l -210.27,-120.14 c -16.15,-8.24 -35.91,-3.06 -45.94,12.04 l -267.17,402.62 -132.46,169.53 c 0,0 -79.26,239.86 -89.69,342.07 -10.43,102.2 -5.95,211.68 0,269.06 6.37,61.41 32.14,210.67 32.14,210.67"
         style="fill:#bbab8e;fill-opacity:1;fill-rule:nonzero;stroke:none"
         id="path256" /><path
         d="m 1772.44,2408.05 c 32.74,-17.19 55.83,-48.38 62.69,-84.71 15.8,-83.59 63.44,-229.4 81.29,-385.09 24.98,-217.8 -33.55,-285.01 -61.19,-322.56 -27.06,-36.76 -198.84,-117.47 -198.84,-117.47 l -128.68,171.49 142.52,116.78 -12.51,302.44 c 0,0 -50.06,68.83 -25.03,171.03 25.03,102.2 98.03,154.35 139.75,148.09"
         style="fill:#bbab8e;fill-opacity:1;fill-rule:nonzero;stroke:none"
         id="path258" /><path
         d="m 1690.05,1446.07 -33.66,52.15 v 0 c 0,0 171.78,80.71 198.84,117.47 2.53,3.44 5.33,7.14 8.3,11.18 2.29,3 4.48,6.07 6.6,9.23 11.76,16.98 25,39.6 35.23,72.63 7.44,-52.49 -2.2,-107.69 -33.74,-150.3 -31.71,-42.85 -128.88,-104.3 -181.57,-112.36"
         style="fill:#bbab8e;fill-opacity:1;fill-rule:nonzero;stroke:none"
         id="path260" /><path
         d="m 1656.39,1498.22 c 45.94,24.24 113.26,62.06 161.6,88.8 18.59,10.29 33.31,23.83 45.54,39.85 -2.97,-4.04 -5.77,-7.74 -8.3,-11.18 -27.06,-36.76 -198.84,-117.47 -198.84,-117.47 m 213.74,137.88 c 14.29,21.3 25.06,46.3 35.1,73.51 0.04,-0.29 0.09,-0.59 0.13,-0.88 -10.23,-33.03 -23.47,-55.65 -35.23,-72.63"
         style="fill:#cc4341;fill-opacity:1;fill-rule:nonzero;stroke:none"
         id="path262" /><path
         d="m 1654.23,2072.87 c 0.09,0.01 0.41,-1.51 0.94,-4.51 0.53,-3.24 1.27,-7.66 2.2,-13.34 1.87,-12 4.55,-29.27 7.99,-51.39 6.74,-44.95 16.43,-109.6 28.42,-189.53 l 0.15,-1 -0.77,-0.69 c -47.4,-41.76 -102.92,-90.71 -163.9,-144.47 l 0.33,3.18 c 39.62,-52.7 83.17,-110.62 128.85,-171.36 l -3.19,0.76 c 42.8,21.57 87.04,44.94 130.9,70.88 12.45,7.48 24.78,15.02 36.62,23.06 11.9,7.89 23.48,16.37 33.19,26.04 17.63,21.23 30.99,46.39 40.71,71.64 19.52,51.07 24.43,104.53 24,154.66 -0.71,50.32 -6.68,97.94 -13.62,142.23 -6.91,44.29 -14.89,85.33 -22.78,122.65 -15.76,74.66 -30.9,134.56 -41.54,175.89 -5.38,20.44 -9.57,36.42 -12.5,47.54 -1.38,5.25 -2.46,9.35 -3.25,12.37 -0.71,2.79 -1.04,4.23 -0.95,4.26 0,0 0.59,-1.37 1.46,-4.12 0.91,-2.98 2.16,-7.03 3.75,-12.23 3.21,-10.77 7.8,-26.7 13.44,-47.3 11.26,-41.18 26.95,-100.99 43.19,-175.64 8.13,-37.32 16.34,-78.38 23.44,-122.75 7.14,-44.35 13.31,-92.16 14.16,-142.84 0.56,-50.48 -4.26,-104.58 -24.04,-156.55 -9.99,-25.86 -23.12,-50.96 -41.68,-73.35 -10.37,-10.34 -22.04,-18.81 -34.07,-26.82 -11.96,-8.12 -24.35,-15.69 -36.86,-23.21 -44.06,-26.06 -88.33,-49.42 -131.29,-71 l -1.9,-0.97 -1.29,1.72 c -45.55,60.83 -88.99,118.84 -128.51,171.61 l -1.3,1.75 1.63,1.43 c 61.21,53.49 116.95,102.2 164.51,143.77 l -0.62,-1.68 c -11.28,80.04 -20.41,144.76 -26.75,189.77 -3.01,22.19 -5.36,39.5 -6.99,51.54 -0.72,5.7 -1.27,10.15 -1.69,13.41 -0.35,3.02 -0.48,4.58 -0.39,4.59"
         style="fill:#17282f;fill-opacity:1;fill-rule:nonzero;stroke:none"
         id="path264" /><path
         d="m 1472.94,1814.47 c -0.18,0.03 0.01,2.44 0.54,6.98 0.66,5.05 1.52,11.63 2.58,19.81 2.54,17.79 6.08,42.47 10.42,72.73 8.76,61.41 22.44,145.99 35.73,239.69 6.17,45.36 12.07,88.63 17.44,128.02 l 1.53,-2.57 c -14.77,5.67 -28.91,11.1 -42.39,16.28 l -4.13,1.58 3.69,2.39 c 15.23,9.85 29.47,19.07 42.62,27.58 l -0.87,-1.93 c -5.06,35.38 -9.2,64.29 -12.16,85.01 -1.26,9.64 -2.27,17.36 -3.04,23.21 -0.63,5.33 -0.87,8.14 -0.68,8.17 0.2,0.03 0.81,-2.73 1.81,-7.99 1.02,-5.82 2.37,-13.49 4.06,-23.07 3.39,-20.65 8.11,-49.47 13.88,-84.73 l 0.21,-1.23 -1.07,-0.71 c -13.05,-8.65 -27.19,-18.03 -42.3,-28.06 l -0.44,3.97 c 13.52,-5.08 27.71,-10.4 42.53,-15.96 l 1.78,-0.67 -0.25,-1.91 c -5.25,-39.42 -11.02,-82.7 -17.06,-128.07 -13.29,-93.72 -27.56,-178.28 -37.25,-239.56 -5.02,-30.16 -9.11,-54.78 -12.06,-72.49 -1.46,-8.13 -2.64,-14.65 -3.54,-19.66 -0.87,-4.49 -1.4,-6.83 -1.58,-6.81"
         style="fill:#17282f;fill-opacity:1;fill-rule:nonzero;stroke:none"
         id="path266" /><path
         d="m 1734.83,2398.61 c 0.63,-0.84 -12.1,-9.59 -29.19,-27.35 -8.61,-8.8 -17.86,-20.22 -27.05,-33.61 -8.93,-13.57 -17.64,-29.22 -24.84,-46.53 -6.99,-17.42 -11.72,-34.69 -14.85,-50.63 -2.81,-16.01 -4.21,-30.62 -4.22,-42.94 -0.24,-24.65 2.73,-39.8 1.7,-39.96 -0.36,-0.07 -1.24,3.67 -2.54,10.53 -0.71,3.42 -1.42,7.63 -1.77,12.59 -0.4,4.94 -1.19,10.56 -1.07,16.82 -0.46,12.51 0.57,27.44 3.17,43.8 2.93,16.3 7.62,33.98 14.76,51.76 7.35,17.67 16.38,33.59 25.69,47.27 9.6,13.5 19.32,24.88 28.4,33.49 4.31,4.55 8.8,8.02 12.55,11.26 3.71,3.29 7.18,5.81 10.08,7.75 5.73,3.99 8.97,6.04 9.18,5.75"
         style="fill:#17282f;fill-opacity:1;fill-rule:nonzero;stroke:none"
         id="path268" /><path
         d="m 1017.92,1844.77 c -1.43,-0.1 -6.03,48.43 -10.27,108.39 -4.24,59.97 -6.51,108.66 -5.08,108.76 1.44,0.1 6.04,-48.42 10.27,-108.4 4.24,-59.95 6.51,-108.65 5.08,-108.75"
         style="fill:#17282f;fill-opacity:1;fill-rule:nonzero;stroke:none"
         id="path270" /><path
         d="m 1863.33,1403.31 38.53,-78.67 178.31,114.12 -61.76,69.89 -155.08,-105.34"
         style="fill:#bbab8e;fill-opacity:1;fill-rule:nonzero;stroke:none"
         id="path272" /><path
         d="m 1863.33,1403.31 c -0.27,0.07 3.49,2.86 10.69,8.02 7.86,5.54 18.4,12.97 31.44,22.16 27.97,19.35 66.55,46.02 111.58,77.18 l 1.76,1.21 1.44,-1.61 c 19.12,-21.58 40.03,-45.16 61.88,-69.79 l 2.01,-2.28 -2.56,-1.64 c -2.47,-1.57 -5.13,-3.28 -7.81,-4.99 -66.32,-42.11 -126.43,-80.27 -170.9,-108.49 l -1.79,-1.14 -0.88,1.88 c -11.41,24.21 -20.74,44.01 -27.55,58.46 -2.91,6.39 -5.29,11.59 -7.16,15.69 -1.58,3.56 -2.32,5.39 -2.15,5.34 0.18,-0.05 1.27,-1.97 3.19,-5.56 2.14,-4.09 4.85,-9.26 8.17,-15.62 7.13,-14 16.9,-33.2 28.84,-56.67 l -2.67,0.75 c 44.25,28.56 104.08,67.16 170.1,109.75 2.67,1.71 5.33,3.42 7.8,4.99 l -0.55,-3.92 c -21.75,24.71 -42.57,48.37 -61.62,70 l 3.19,-0.4 c -45.06,-30.05 -83.65,-55.78 -111.64,-74.45 -13.51,-8.85 -24.45,-16.01 -32.59,-21.33 -3.54,-2.24 -6.46,-4.11 -8.89,-5.65 -2.06,-1.28 -3.19,-1.93 -3.33,-1.89"
         style="fill:#17282f;fill-opacity:1;fill-rule:nonzero;stroke:none"
         id="path274" /><path
         d="m 2057.92,1421.31 -0.09,0.14 c 0,0.01 0.01,0.01 0.01,0.01 l 0.08,-0.15"
         style="fill:#20353d;fill-opacity:1;fill-rule:nonzero;stroke:none"
         id="path276" /><path
         d="m 1904.62,1279.03 c 0,0 -31.63,97.15 -38.34,117.18 1.74,-3.79 3.85,-8.42 6.36,-13.93 6.81,-14.45 16.14,-34.25 27.55,-58.46 l 0.88,-1.88 1.79,1.14 c 40.88,25.94 94.98,60.29 154.97,98.37 l 0.09,-0.14 13,-24.22 -166.3,-118.06"
         style="fill:#bbab8e;fill-opacity:1;fill-rule:nonzero;stroke:none"
         id="path278" /><path
         d="m 1901.07,1321.94 -0.88,1.88 c -11.41,24.21 -20.74,44.01 -27.55,58.46 -2.51,5.51 -4.62,10.14 -6.36,13.93 -0.72,2.16 -1.15,3.43 -1.23,3.58 l 36.81,-75.15 154.78,99.06 1.2,-2.24 c 0,0 -0.01,0 -0.01,-0.01 -59.99,-38.08 -114.09,-72.43 -154.97,-98.37 l -1.79,-1.14"
         style="fill:#0f191d;fill-opacity:1;fill-rule:nonzero;stroke:none"
         id="path280" /><path
         d="m 1482.47,1867.47 c 2.22,13.35 4.79,28.75 7.65,45.96 9.69,61.28 23.96,145.84 37.25,239.56 6.04,45.37 11.81,88.65 17.06,128.07 l 0.25,1.91 -1.78,0.67 c -13.33,5 -26.15,9.81 -38.43,14.42 13.74,9.12 26.65,17.68 38.64,25.63 l 1.07,0.71 -0.21,1.23 c -4.9,29.95 -9.05,55.26 -12.26,74.85 l 27.08,-89.4 -29.52,-13.58 39.45,-19.4 c 0,0 -62.18,-339.99 -70.02,-371.02 -6.21,-24.59 -13.48,-35.95 -16.23,-39.61"
         style="fill:#cc4341;fill-opacity:1;fill-rule:nonzero;stroke:none"
         id="path282" /><path
         d="m 1481.34,1866.09 60.7,415.29 -42.46,16.12 42.46,27.83 -12.77,83.22 2.44,-8.07 c 3.21,-19.59 7.36,-44.9 12.26,-74.85 l 0.21,-1.23 -1.07,-0.71 c -11.99,-7.95 -24.9,-16.51 -38.64,-25.63 12.28,-4.61 25.1,-9.42 38.43,-14.42 l 1.78,-0.67 -0.25,-1.91 c -5.25,-39.42 -11.02,-82.7 -17.06,-128.07 -13.29,-93.72 -27.56,-178.28 -37.25,-239.56 -2.86,-17.21 -5.43,-32.61 -7.65,-45.96 -0.72,-0.95 -1.13,-1.38 -1.13,-1.38"
         style="fill:#0f191d;fill-opacity:1;fill-rule:nonzero;stroke:none"
         id="path284" /><path
         d="m 871.324,1877.28 c -1.719,-0.05 1.461,32.19 -11.289,68.95 -12.265,36.94 -34.414,60.58 -33.023,61.58 0.433,0.42 6.519,-4.86 14.398,-15.17 7.887,-10.26 17.137,-25.91 23.559,-44.74 6.359,-18.84 8.547,-36.87 8.543,-49.82 0.023,-12.98 -1.59,-20.87 -2.188,-20.8"
         style="fill:#17282f;fill-opacity:1;fill-rule:nonzero;stroke:none"
         id="path286" /><path
         d="m 1017.2,1844.77 -0.01,0.01 h 0.01 v -0.01"
         style="fill:#20353d;fill-opacity:1;fill-rule:nonzero;stroke:none"
         id="path288" /><path
         d="m 1017.19,1844.78 c -34.702,71.7 -45.389,152.83 -15.74,226.75 0.31,-3.42 0.61,-6.81 0.9,-10.17 -0.92,-5.58 1.32,-51.92 5.3,-108.2 3.52,-49.89 7.3,-91.86 9.3,-104.5 0.08,-1.29 0.16,-2.58 0.25,-3.88 h -0.01"
         style="fill:#cc4341;fill-opacity:1;fill-rule:nonzero;stroke:none"
         id="path290" /><path
         d="m 1016.95,1848.66 c -2,12.64 -5.78,54.61 -9.3,104.5 -3.98,56.28 -6.22,102.62 -5.3,108.2 6.49,-74.08 9.62,-135.57 14.6,-212.7"
         style="fill:#0f191d;fill-opacity:1;fill-rule:nonzero;stroke:none"
         id="path292" /><path
         d="m 1432.95,2411.11 c 0.29,-0.2 -1.6,-3.69 -5.27,-9.8 -4.24,-7.1 -9.4,-15.76 -15.48,-25.94 -12.94,-21.95 -30.23,-52.63 -47.3,-87.54 -11.55,-23.5 -21.47,-45.93 -29.53,-65 l -1.17,-2.75 -2.29,1.83 c -16.4,13.11 -28.89,25.38 -37.19,34.31 -8.29,8.96 -12.51,14.52 -12.18,14.82 0.39,0.34 5.26,-4.62 14.04,-12.97 8.8,-8.34 21.6,-20.02 38.09,-32.63 l -3.45,-0.92 c 7.66,19.33 17.39,41.98 29.01,65.6 17.15,35.09 35.04,65.64 48.83,87.18 6.91,10.76 12.75,19.31 16.92,25.11 4.2,5.8 6.67,8.9 6.97,8.7"
         style="fill:#17282f;fill-opacity:1;fill-rule:nonzero;stroke:none"
         id="path294" /><path
         d="m 1268.73,2272.94 c 1.32,-0.51 -6.1,-23.12 -16.66,-50.89 l -1.33,-3.49 -2.81,2.45 -1.3,1.14 c -23.21,20.22 -38.1,40.38 -37.02,41.21 1.15,0.97 17.61,-17.4 40.45,-37.29 l 1.28,-1.13 -4.13,-1.03 c 10.64,27.73 20.2,49.53 21.52,49.03"
         style="fill:#17282f;fill-opacity:1;fill-rule:nonzero;stroke:none"
         id="path296" /><path
         d="m 1298.08,1761.43 c -0.18,-0.01 -0.44,1.67 -0.78,4.89 -0.34,3.82 -0.74,8.47 -1.23,14.08 -0.88,13.05 -2.05,30.57 -3.48,51.85 -2.66,43.79 -5.82,104.31 -8.46,171.21 -2.57,66.92 -4.09,127.54 -4.09,171.43 -0.04,21.96 0.27,39.72 0.69,51.99 0.29,5.63 0.53,10.29 0.72,14.12 0.22,3.23 0.43,4.92 0.6,4.91 0.18,0 0.33,-1.7 0.45,-4.93 0.07,-3.83 0.16,-8.49 0.26,-14.12 0.24,-13.07 0.57,-30.61 0.96,-51.92 0.95,-43.83 3.04,-104.38 5.62,-171.28 2.69,-66.49 5.12,-126.66 6.93,-171.23 0.75,-21.31 1.36,-38.85 1.82,-51.92 0.1,-5.63 0.19,-10.3 0.26,-14.14 0,-3.23 -0.09,-4.93 -0.27,-4.94"
         style="fill:#17282f;fill-opacity:1;fill-rule:nonzero;stroke:none"
         id="path298" /><path
         d="m 712.633,411.012 25.883,-244.18 c 0,0 -239.5,-108.3125 -239.118,-153.9101 L 974.652,46.1094 949.938,428.219 712.633,411.012"
         style="fill:#bbab8e;fill-opacity:1;fill-rule:nonzero;stroke:none"
         id="path300" /><path
         d="m 884.035,197.68 c 9.375,-1.867 16.449,-11.77 14.965,-21.211 -1.484,-9.449 -11.488,-16.727 -20.895,-15.008 -9.402,1.699 -18.265,13.32 -15.73,22.539 2.531,9.211 14.75,17.129 23.465,13.211"
         style="fill:#dadbd8;fill-opacity:1;fill-rule:nonzero;stroke:none"
         id="path302" /><path
         d="M 975.695,36.1289 973.34,73.1602 516.484,38.3398 c 0,0 -20.515,-10.6796 -17.086,-25.4179 l 476.297,23.207"
         style="fill:#dadbd8;fill-opacity:1;fill-rule:nonzero;stroke:none"
         id="path304" /><path
         d="m 730.645,168.711 c 0.234,-2.309 11.914,-2.559 23.851,-9.231 12.117,-6.339 18.707,-15.98 20.777,-14.917 2.106,0.597 -2.324,14.226 -16.918,22.046 -14.527,7.942 -28.363,4.192 -27.71,2.102"
         style="fill:#17282f;fill-opacity:1;fill-rule:nonzero;stroke:none"
         id="path306" /><path
         d="m 682.238,144.609 c -0.379,-2.277 9.95,-5.527 18.52,-14.789 8.84,-9.019 11.566,-19.488 13.871,-19.23 2.207,-0.211 2.863,13.492 -8.008,24.812 -10.766,11.411 -24.484,11.43 -24.383,9.207"
         style="fill:#17282f;fill-opacity:1;fill-rule:nonzero;stroke:none"
         id="path308" /><path
         d="m 658.094,82.9805 c 2.136,-0.3516 4.558,11.4804 -2.285,23.7615 -6.766,12.34 -18.055,16.598 -18.903,14.598 -1.176,-2 6.348,-8.328 11.813,-18.52 5.703,-10.0309 7.051,-19.7692 9.375,-19.8395"
         style="fill:#17282f;fill-opacity:1;fill-rule:nonzero;stroke:none"
         id="path310" /><path
         d="m 730.918,225.012 c 1.125,-2.051 11.543,1.91 24.723,1.929 13.183,0.289 23.695,-3.402 24.765,-1.32 1.231,1.758 -9.34,9.668 -24.863,9.41 -15.52,-0.129 -25.891,-8.269 -24.625,-10.019"
         style="fill:#17282f;fill-opacity:1;fill-rule:nonzero;stroke:none"
         id="path312" /><path
         d="M 628.004,1396.31 407.902,1287.46 c 0,0 -184.562,187.17 -227.199,171.02 l 195.719,-434.36 349.914,155.53 -98.332,216.66"
         style="fill:#bbab8e;fill-opacity:1;fill-rule:nonzero;stroke:none"
         id="path314" /><path
         d="m 487.238,1161.63 c 1.489,-9.44 -5.347,-19.5 -14.718,-21.38 -9.372,-1.88 -19.672,4.99 -21.325,14.4 -1.652,9.41 6.18,21.75 15.703,22.57 9.524,0.81 21.172,-7.91 20.524,-17.44"
         style="fill:#dadbd8;fill-opacity:1;fill-rule:nonzero;stroke:none"
         id="path316" /><path
         d="m 367.422,1019.7 33.922,15.03 -190.875,416.53 c 0,0 -17.129,15.55 -29.766,7.22 L 367.422,1019.7"
         style="fill:#dadbd8;fill-opacity:1;fill-rule:nonzero;stroke:none"
         id="path318" /><path
         d="m 406.934,1295.5 c -2.09,-1.03 1.73,-12.06 -0.391,-25.58 -1.762,-13.56 -8.523,-23.08 -6.805,-24.65 1.293,-1.77 12.547,7.11 14.825,23.51 2.421,16.38 -5.891,28.06 -7.629,26.72"
         style="fill:#17282f;fill-opacity:1;fill-rule:nonzero;stroke:none"
         id="path320" /><path
         d="m 367.563,1332.57 c -2.27,-0.44 -1.739,-11.26 -7.465,-22.5 -5.391,-11.42 -14.274,-17.61 -13.231,-19.68 0.567,-2.14 13.649,1.99 20.496,16.11 6.981,14.05 2.242,26.93 0.2,26.07"
         style="fill:#17282f;fill-opacity:1;fill-rule:nonzero;stroke:none"
         id="path322" /><path
         d="m 301.383,1333.87 c 0.414,-2.13 12.344,-0.3 21.504,10.37 9.238,10.63 9.312,22.69 7.144,22.79 -2.285,0.41 -5.617,-8.83 -13.273,-17.49 -7.445,-8.83 -16.117,-13.46 -15.375,-15.67"
         style="fill:#17282f;fill-opacity:1;fill-rule:nonzero;stroke:none"
         id="path324" /><path
         d="m 459.852,1314.74 c -1.536,-1.76 5.781,-10.17 10.363,-22.53 4.84,-12.26 5.019,-23.4 7.336,-23.69 2.09,-0.54 5.836,12.12 0.222,26.59 -5.492,14.51 -16.726,21.43 -17.921,19.63"
         style="fill:#17282f;fill-opacity:1;fill-rule:nonzero;stroke:none"
         id="path326" /><path
         d="m 735.465,1257.87 c 0,0 -78.82,-16.05 -94.871,-100.71 -16.059,-84.66 42.222,-936.59 42.222,-936.59 l 298.977,23.961 -18.262,574.078 -7.363,115.723 25.625,19.637 525.497,92.461 -79.96,217.28 -87.88,152.93 -402.555,-100.38 -201.43,-58.39"
         style="fill:#17282f;fill-opacity:1;fill-rule:nonzero;stroke:none"
         id="path328" /><path
         d="m 1724.9,1401.41 c 0,0 -217.41,314.29 -280.96,360.02 -52.44,37.72 -131.21,37.67 -179.9,15.76 -48.68,-21.9 -810.52,-399.55 -810.52,-399.55 l 111.691,-279.6 724.649,251.13 108.01,-169.51 100.53,-133.23 282.38,-2.21 c 13.38,0 74,119.78 74,119.78 l -129.88,237.41"
         style="fill:#17282f;fill-opacity:1;fill-rule:nonzero;stroke:none"
         id="path330" /><path
         d="m 637.789,1091.45 c -0.09,0 -0.137,0.99 -0.141,2.94 0.024,2.23 0.059,5.07 0.098,8.63 0.094,3.92 0.203,8.59 0.336,14.05 0.488,5.53 1.356,11.89 2.191,19.06 0.512,7.25 3.008,14.97 4.7,23.61 0.836,4.33 2.699,8.58 4.093,13.16 1.457,4.56 3.055,9.27 5.403,13.89 8.242,18.76 21.664,39.15 42.722,54.8 10.504,7.76 22.739,14.35 36.754,18.01 13.899,2.36 28.34,4.81 43.293,7.34 29.871,5 61.762,10.33 95.313,15.94 67.187,11.13 140.989,23.35 218.459,36.18 70.13,11.49 137.23,22.48 198.45,32.51 l 1.59,0.27 0.86,-1.35 c 58.1,-90.73 105.3,-169.65 144.97,-221.24 19.26,-25.84 34.62,-46.44 45.4,-60.91 5.12,-6.83 9.16,-12.22 12.13,-16.18 1.23,-1.7 2.22,-3.07 3.06,-4.22 0.67,-0.96 0.98,-1.46 0.93,-1.51 l -1.26,1.26 c -0.92,1.08 -2.02,2.37 -3.38,3.97 -3.11,3.84 -7.35,9.06 -12.74,15.71 -11.03,13.8 -26.97,34.1 -46.54,60.1 -40.42,51.18 -88.35,130.01 -146.67,220.38 l 2.44,-1.08 c -61.19,-10.13 -128.28,-21.24 -198.38,-32.84 -77.49,-12.69 -151.311,-24.78 -218.515,-35.78 -33.578,-5.44 -65.5,-10.62 -95.39,-15.47 -14.899,-2.41 -29.285,-4.75 -43.125,-6.99 -13.223,-3.35 -25.274,-9.65 -35.473,-17.06 -20.558,-15 -33.902,-34.72 -42.246,-53.04 -2.367,-4.5 -4.004,-9.11 -5.504,-13.59 -1.445,-4.49 -3.355,-8.65 -4.254,-12.92 -1.8,-8.5 -4.425,-16.1 -5.086,-23.26 -0.992,-7.05 -1.875,-13.35 -2.652,-18.88 -0.32,-5.41 -0.602,-10.07 -0.828,-13.96 -0.254,-3.54 -0.457,-6.38 -0.617,-8.6 -0.172,-1.94 -0.297,-2.93 -0.391,-2.93"
         style="fill:#33535f;fill-opacity:1;fill-rule:nonzero;stroke:none"
         id="path332" /><path
         d="m 1393.61,1543.09 c 0.36,0.01 0.75,-3.19 1.14,-9.02 0.51,-5.82 0.39,-14.31 -0.53,-24.73 -0.83,-10.45 -3.07,-22.78 -6.69,-36.16 -3.87,-13.31 -9.28,-27.65 -16.65,-41.89 -7.52,-14.16 -16.25,-26.76 -25,-37.51 -8.96,-10.59 -17.82,-19.44 -25.94,-26.06 -8.06,-6.68 -14.98,-11.6 -20.06,-14.5 -5.02,-2.98 -7.87,-4.49 -8.05,-4.18 -0.54,0.83 10.44,7.61 25.68,21.45 7.67,6.86 16.08,15.79 24.65,26.32 8.36,10.69 16.75,23.07 24.12,36.9 7.19,13.92 12.6,27.85 16.65,40.81 3.78,13.03 6.36,25.03 7.63,35.24 2.73,20.41 2.07,33.29 3.05,33.33"
         style="fill:#33535f;fill-opacity:1;fill-rule:nonzero;stroke:none"
         id="path334" /><path
         d="m 3913.67,546.332 -1308.55,0.77 c -157.38,0.078 -284.91,127.718 -284.88,285.097 l 0.64,3280.591 c 0.03,157.47 127.73,285.08 285.2,284.99 l 1308.57,-0.77 c 157.38,-0.09 284.9,-127.72 284.87,-285.1 L 4198.89,831.309 C 4198.86,673.84 4071.14,546.23 3913.67,546.332"
         style="fill:#17282f;fill-opacity:1;fill-rule:nonzero;stroke:none"
         id="path336" /><path
         d="m 3913.26,4280.98 -253.7,0.15 c -34.02,0.01 -61.62,-28.81 -61.62,-64.37 l -0.01,-46.02 c 0,-35.57 -27.6,-64.39 -61.62,-64.37 l -494.53,0.29 c -34.02,0.02 -61.6,28.88 -61.59,64.44 l 0.01,46.02 c 0.01,35.57 -27.58,64.43 -61.61,64.44 l -89.21,0.05 -222.06,0.14 c -110.29,0.05 -199.72,-89.32 -199.75,-199.6 l -0.63,-3202.091 c -0.02,-110.227 89.29,-199.61 199.52,-199.68 l 1305.94,-0.758 c 110.28,-0.07 199.72,89.301 199.75,199.59 l 0.62,3202.099 c 0.02,110.22 -89.28,199.6 -199.51,199.67"
         style="fill:#ffffff;fill-opacity:1;fill-rule:nonzero;stroke:none"
         id="path338" /><path
         d="m 3767.8449,1411.8339 h -1042.95 c -91.79,0 -166.2,74.4 -166.2,166.19 v 35.27 c 0,91.79 74.41,166.2 166.2,166.2 h 1042.95 c 91.78,0 166.2,-74.41 166.2,-166.2 v -35.27 c 0,-91.79 -74.42,-166.19 -166.2,-166.19"
         style="fill:#bbab8e;fill-opacity:1;fill-rule:nonzero;stroke:none"
         id="path458" /><path
         d="m 4112.77,4081.31 c 0.02,110.22 -89.28,199.6 -199.51,199.67 l -253.7,0.15 c -34.02,0.01 -61.62,-28.81 -61.62,-64.37 l -0.01,-46.02 c 0,-35.57 -27.6,-64.39 -61.62,-64.37 l -494.53,0.29 c -34.02,0.02 -61.6,28.88 -61.59,64.44 l 0.01,46.02 c 0.01,35.57 -27.58,64.43 -61.61,64.44 l -89.21,0.05 -222.06,0.14 c -110.29,0.05 -199.72,-89.32 -199.75,-199.6 l -0.63,-306.2 h 1705.82 l 0.01,305.36"
         style="fill:#f3f2f1;fill-opacity:1;fill-rule:nonzero;stroke:none"
         id="path340" /><path
         d="m 3973.98,3968.8 c 0.01,-0.96 -30.56,-1.99 -68.27,-2.29 -37.71,-0.31 -68.29,0.2 -68.29,1.16 -0.01,0.95 30.55,1.98 68.26,2.29 37.71,0.31 68.3,-0.21 68.3,-1.16"
         style="fill:#17282f;fill-opacity:1;fill-rule:nonzero;stroke:none"
         id="path342" /><path
         d="m 3974.27,3933.86 c 0.01,-0.96 -30.56,-1.98 -68.26,-2.29 -37.72,-0.32 -68.29,0.21 -68.3,1.16 -0.01,0.95 30.55,1.98 68.27,2.29 37.7,0.31 68.28,-0.21 68.29,-1.16"
         style="fill:#17282f;fill-opacity:1;fill-rule:nonzero;stroke:none"
         id="path344" /><path
         d="m 3974.56,3898.92 c 0,-0.96 -30.56,-1.98 -68.26,-2.29 -37.72,-0.32 -68.29,0.2 -68.3,1.16 -0.01,0.95 30.55,1.98 68.27,2.29 37.71,0.31 68.28,-0.21 68.29,-1.16"
         style="fill:#17282f;fill-opacity:1;fill-rule:nonzero;stroke:none"
         id="path346" /><path
         d="m 2785.76,1550.8 6.88,14.5 c 9.67,-8.74 26.21,-15.05 42.94,-15.05 22.48,0 32.15,8.74 32.15,20.07 0,31.78 -78.8,11.71 -78.8,60.03 0,20.07 15.6,37.17 49.8,37.17 15.25,0 31.04,-4.09 41.82,-11.52 l -6.14,-14.87 c -11.33,7.25 -24.16,10.59 -35.68,10.59 -22.12,0 -31.59,-9.29 -31.59,-20.62 0,-31.78 78.8,-11.9 78.8,-59.66 0,-19.89 -15.99,-36.98 -50.36,-36.98 -19.9,0 -39.41,6.68 -49.82,16.34"
         style="fill:#17282f;fill-opacity:1;fill-rule:nonzero;stroke:none"
         id="path348" /><path
         d="m 2901.36,1585.19 c 0,29.36 21.75,50.18 52.04,50.18 17.66,0 32.34,-7.24 40.15,-21 l -13.57,-8.73 c -6.33,9.65 -15.98,14.12 -26.77,14.12 -19.32,0 -33.82,-13.57 -33.82,-34.57 0,-21.37 14.5,-34.76 33.82,-34.76 10.79,0 20.44,4.46 26.77,14.13 l 13.57,-8.55 c -7.81,-13.75 -22.49,-21.18 -40.15,-21.18 -30.29,0 -52.04,20.99 -52.04,50.36"
         style="fill:#17282f;fill-opacity:1;fill-rule:nonzero;stroke:none"
         id="path350" /><path
         d="m 3076.8,1566.05 v 13.75 h -27.51 c -17.66,0 -22.67,-6.88 -22.67,-15.24 0,-9.85 8.18,-15.98 21.74,-15.98 13.38,0 23.97,6.13 28.44,17.47 z m 17.84,29.36 v -59.47 h -16.91 v 13.01 c -5.95,-8.92 -16.92,-14.12 -32.34,-14.12 -22.3,0 -36.42,11.89 -36.42,28.99 0,15.79 10.21,28.81 39.58,28.81 h 28.25 v 3.52 c 0,15.06 -8.73,23.79 -26.39,23.79 -11.71,0 -23.6,-4.09 -31.23,-10.59 l -7.43,13.39 c 10.22,8.17 24.9,12.63 40.7,12.63 26.95,0 42.19,-13 42.19,-39.96"
         style="fill:#17282f;fill-opacity:1;fill-rule:nonzero;stroke:none"
         id="path352" /><path
         d="m 3221.2,1592.63 v -56.69 h -17.84 v 54.64 c 0,19.32 -9.67,28.81 -26.58,28.81 -18.96,0 -31.22,-11.34 -31.22,-32.71 v -50.74 h -17.84 v 98.51 h 17.1 v -14.88 c 7.24,10.04 19.88,15.8 35.49,15.8 23.98,0 40.89,-13.76 40.89,-42.74"
         style="fill:#17282f;fill-opacity:1;fill-rule:nonzero;stroke:none"
         id="path354" /><path
         d="m 3347.76,1592.63 v -56.69 h -17.84 v 54.64 c 0,19.32 -9.67,28.81 -26.58,28.81 -18.95,0 -31.22,-11.34 -31.22,-32.71 v -50.74 h -17.84 v 98.51 h 17.1 v -14.88 c 7.24,10.04 19.88,15.8 35.5,15.8 23.97,0 40.88,-13.76 40.88,-42.74"
         style="fill:#17282f;fill-opacity:1;fill-rule:nonzero;stroke:none"
         id="path356" /><path
         d="m 3380.84,1634.45 h 17.84 v -98.51 h -17.84 z m -3.16,30.47 c 0,6.51 5.2,11.71 12.08,11.71 6.88,0 12.08,-5.02 12.08,-11.34 0,-6.68 -5.01,-11.89 -12.08,-11.89 -6.88,0 -12.08,5.02 -12.08,11.52"
         style="fill:#17282f;fill-opacity:1;fill-rule:nonzero;stroke:none"
         id="path358" /><path
         d="m 3526.18,1592.63 v -56.69 h -17.84 v 54.64 c 0,19.32 -9.67,28.81 -26.58,28.81 -18.96,0 -31.22,-11.34 -31.22,-32.71 v -50.74 h -17.84 v 98.51 h 17.1 v -14.88 c 7.24,10.04 19.88,15.8 35.49,15.8 23.98,0 40.89,-13.76 40.89,-42.74"
         style="fill:#17282f;fill-opacity:1;fill-rule:nonzero;stroke:none"
         id="path360" /><path
         d="m 3636.56,1587.79 c 0,19.15 -14.13,31.97 -33.82,31.97 -19.89,0 -34.02,-12.82 -34.02,-31.97 0,-18.95 14.13,-32.15 34.02,-32.15 19.69,0 33.82,13.2 33.82,32.15 z m 17.47,46.66 v -85.13 c 0,-34.76 -17.65,-50.55 -51.11,-50.55 -18.03,0 -36.24,5.02 -47.02,14.68 l 8.55,13.76 c 9.11,-7.81 23.42,-12.83 37.91,-12.83 23.24,0 33.83,10.78 33.83,33.08 v 7.81 c -8.55,-10.22 -21.37,-15.24 -35.5,-15.24 -28.43,0 -50,19.33 -50,47.76 0,28.44 21.57,47.58 50,47.58 14.68,0 28.06,-5.39 36.43,-16.17 v 15.25 h 16.91"
         style="fill:#17282f;fill-opacity:1;fill-rule:nonzero;stroke:none"
         id="path362" /><path
         d="m 3679.67,1547.65 c 0,7.43 5.76,12.64 12.65,12.64 6.69,0 12.26,-5.21 12.26,-12.64 0,-7.43 -5.57,-12.82 -12.26,-12.82 -6.89,0 -12.65,5.39 -12.65,12.82"
         style="fill:#17282f;fill-opacity:1;fill-rule:nonzero;stroke:none"
         id="path364" /><path
         d="m 3721.86,1547.65 c 0,7.43 5.76,12.64 12.64,12.64 6.69,0 12.27,-5.21 12.27,-12.64 0,-7.43 -5.58,-12.82 -12.27,-12.82 -6.88,0 -12.64,5.39 -12.64,12.82"
         style="fill:#17282f;fill-opacity:1;fill-rule:nonzero;stroke:none"
         id="path366" /><path
         d="m 3764.04,1547.65 c 0,7.43 5.77,12.64 12.65,12.64 6.69,0 12.27,-5.21 12.27,-12.64 0,-7.43 -5.58,-12.82 -12.27,-12.82 -6.88,0 -12.65,5.39 -12.65,12.82"
         style="fill:#17282f;fill-opacity:1;fill-rule:nonzero;stroke:none"
         id="path368" /><path
         d="m 2686.06,2564.42 v -61.91 h 61.9 v 123.82 h -61.9 v -61.91"
         style="fill:#17282f;fill-opacity:1;fill-rule:nonzero;stroke:none"
         id="path370" /><path
         d="m 2686.06,2935.89 v -61.91 h 61.9 v 61.91 h -61.9"
         style="fill:#17282f;fill-opacity:1;fill-rule:nonzero;stroke:none"
         id="path372" /><path
         d="m 3068.63,2254.22 v -61.9 h 61.92 v 61.9 h -61.92"
         style="fill:#17282f;fill-opacity:1;fill-rule:nonzero;stroke:none"
         id="path374" /><path
         d="m 2747.96,2812.07 v -61.92 h -61.9 v -61.91 h 61.9 v -61.91 h 61.91 61.92 v -61.91 h 61.91 v 61.91 h 61.92 v 61.91 61.91 h -61.92 v -61.91 h -61.91 -61.92 v 61.91 61.92 61.91 h -61.91 v -61.91"
         style="fill:#17282f;fill-opacity:1;fill-rule:nonzero;stroke:none"
         id="path376" /><path
         d="m 2871.79,2935.89 h -61.92 v -61.91 h 123.83 v 61.91 h -61.91"
         style="fill:#17282f;fill-opacity:1;fill-rule:nonzero;stroke:none"
         id="path378" /><path
         d="m 3150.39,2438.18 h 33.27 v 61.91 h -66.53 v -61.91 h 33.26"
         style="fill:#17282f;fill-opacity:1;fill-rule:nonzero;stroke:none"
         id="path380" /><path
         d="m 2933.7,2812.07 h 61.92 v 61.91 h -61.92 v -61.91"
         style="fill:#17282f;fill-opacity:1;fill-rule:nonzero;stroke:none"
         id="path382" /><path
         d="M 3367.08,2564.42 H 3429 v 61.91 h -61.92 v -61.91"
         style="fill:#17282f;fill-opacity:1;fill-rule:nonzero;stroke:none"
         id="path384" /><path
         d="M 3490.91,3307.37 H 3429 v -61.92 h 61.91 v 61.92"
         style="fill:#17282f;fill-opacity:1;fill-rule:nonzero;stroke:none"
         id="path386" /><path
         d="m 3119.43,2812.07 v 61.91 h 61.92 v 61.91 h -61.92 v 61.91 h -61.9 v -61.91 h -61.91 v -61.91 h 61.91 v -61.91 -61.92 -61.91 -61.91 h 61.9 v 61.91 61.91 h 61.92 v 61.92 h -61.92"
         style="fill:#17282f;fill-opacity:1;fill-rule:nonzero;stroke:none"
         id="path388" /><path
         d="m 3429,2192.94 h 61.91 v 61.92 h -123.82 v -61.92 H 3429"
         style="fill:#17282f;fill-opacity:1;fill-rule:nonzero;stroke:none"
         id="path390" /><path
         d="m 3305.18,3307.37 v -61.92 h 61.91 v 61.92 h -61.91"
         style="fill:#17282f;fill-opacity:1;fill-rule:nonzero;stroke:none"
         id="path392" /><path
         d="m 3351.61,2812.07 v 61.91 h -61.91 v 61.91 h -61.92 v -61.91 -61.91 h -61.91 v -61.92 h 61.91 61.92 v 61.92 h 61.91"
         style="fill:#17282f;fill-opacity:1;fill-rule:nonzero;stroke:none"
         id="path394" /><path
         d="m 3639.15,2935.89 v -61.91 h 61.91 v 61.91 h -61.91"
         style="fill:#17282f;fill-opacity:1;fill-rule:nonzero;stroke:none"
         id="path396" /><path
         d="m 2997.39,2626.33 v -61.91 h 61.92 v 61.91 h -61.92"
         style="fill:#17282f;fill-opacity:1;fill-rule:nonzero;stroke:none"
         id="path398" /><path
         d="m 3305.18,2997.8 v 61.91 h 61.91 v 61.92 h 61.91 61.91 v 61.91 H 3429 v 61.91 h -61.91 v -61.91 h -61.91 v -61.91 h -61.92 v -61.92 h -61.91 v -61.91 h 61.91 61.92"
         style="fill:#17282f;fill-opacity:1;fill-rule:nonzero;stroke:none"
         id="path400" /><path
         d="m 3305.18,2564.42 v 61.91 h 61.9 v 61.91 h -61.9 -61.92 v -61.91 h -61.91 v -61.91 h 61.91 61.92"
         style="fill:#17282f;fill-opacity:1;fill-rule:nonzero;stroke:none"
         id="path402" /><path
         d="m 3490.91,2316.8 v 61.91 h -123.82 v 61.92 h -61.91 v -61.92 h -61.92 v -61.91 h -61.91 -61.92 v -61.91 h 61.92 61.91 61.92 v 61.91 h 61.91 v -61.91 H 3429 v 61.91 h 61.91"
         style="fill:#17282f;fill-opacity:1;fill-rule:nonzero;stroke:none"
         id="path404" /><path
         d="m 3243.26,3245.45 v 61.92 h -123.83 v -61.92 h -61.9 v -61.91 h 61.9 61.92 v 61.91 h 61.91"
         style="fill:#17282f;fill-opacity:1;fill-rule:nonzero;stroke:none"
         id="path406" /><path
         d="m 3243.26,3183.54 h -61.91 v -61.91 h 61.91 v 61.91"
         style="fill:#17282f;fill-opacity:1;fill-rule:nonzero;stroke:none"
         id="path408" /><path
         d="m 3398.05,2935.89 h -61.92 v -185.74 h 123.82 v 61.92 h -61.9 v 61.91 h 61.9 v 61.91 h 61.92 v 61.91 h -61.92 v 61.91 h -61.9 v -61.91 -61.91"
         style="fill:#17282f;fill-opacity:1;fill-rule:nonzero;stroke:none"
         id="path410" /><path
         d="m 3119.43,3121.63 v -61.92 h 61.92 v 61.92 h -61.92"
         style="fill:#17282f;fill-opacity:1;fill-rule:nonzero;stroke:none"
         id="path412" /><path
         d="m 3367.08,2502.51 v -61.92 h 123.83 v 61.92 h 61.91 61.92 v 61.91 h -61.92 -61.91 -61.91 v -61.91 h -61.92"
         style="fill:#17282f;fill-opacity:1;fill-rule:nonzero;stroke:none"
         id="path414" /><path
         d="m 3701.06,2688.24 v 61.91 h -61.91 v -61.91 h 61.91"
         style="fill:#17282f;fill-opacity:1;fill-rule:nonzero;stroke:none"
         id="path416" /><path
         d="m 3490.91,2626.33 v 61.91 H 3429 v -61.91 h 61.91"
         style="fill:#17282f;fill-opacity:1;fill-rule:nonzero;stroke:none"
         id="path418" /><path
         d="m 3645.69,2873.98 h -123.82 v -61.91 h 61.91 v -61.92 h 61.91 v 61.92 61.91"
         style="fill:#17282f;fill-opacity:1;fill-rule:nonzero;stroke:none"
         id="path420" /><path
         d="m 3552.82,2688.24 v -61.91 h 61.92 v 61.91 h -61.92"
         style="fill:#17282f;fill-opacity:1;fill-rule:nonzero;stroke:none"
         id="path422" /><path
         d="m 3071.85,2516.82 v -154.78 h -154.79 v 154.78 z M 2933.7,2315.61 h 185.8 v 248.87 h -248.87 v -61.97 h -60.76 v -61.92 h 60.76 v -61.91 h -60.76 v -61.91 h 60.76 v -1.16 h 1.16 v -60.75 h -61.92 v -61.92 -61.91 h 61.92 v 61.91 h 61.91 v 61.92 60.75"
         style="fill:#17282f;fill-opacity:1;fill-rule:nonzero;stroke:none"
         id="path424" /><path
         d="m 3738.56,2564.42 h 61.91 v 61.91 h -185.73 v -61.91 h 61.91 61.91"
         style="fill:#17282f;fill-opacity:1;fill-rule:nonzero;stroke:none"
         id="path426" /><path
         d="m 3738.56,2812.07 h 61.91 v 123.82 h -61.91 v -61.91 -61.91"
         style="fill:#17282f;fill-opacity:1;fill-rule:nonzero;stroke:none"
         id="path428" /><path
         d="m 3245.58,2500.09 h -61.92 v -123.82 h 61.92 v 61.91 61.91"
         style="fill:#17282f;fill-opacity:1;fill-rule:nonzero;stroke:none"
         id="path430" /><path
         d="m 3862.38,2502.51 v 61.91 h -61.91 v -61.91 h 61.91"
         style="fill:#17282f;fill-opacity:1;fill-rule:nonzero;stroke:none"
         id="path432" /><path
         d="m 3862.38,2688.24 v 61.91 h -61.91 v -123.82 h 61.91 v 61.91"
         style="fill:#17282f;fill-opacity:1;fill-rule:nonzero;stroke:none"
         id="path434" /><path
         d="m 2747.97,2254.86 h -61.91 v -123.83 h 61.91 v 61.91 61.92"
         style="fill:#17282f;fill-opacity:1;fill-rule:nonzero;stroke:none"
         id="path436" /><path
         d="m 3599.26,3044.24 v 216.69 h 216.69 v -216.69 z m 263.12,-46.44 v 309.57 H 3552.82 V 2997.8 h 309.56"
         style="fill:#17282f;fill-opacity:1;fill-rule:nonzero;stroke:none"
         id="path438" /><path
         d="m 3769.51,3090.67 v 123.82 h -123.82 v -123.82 h 123.82"
         style="fill:#bbab8e;fill-opacity:1;fill-rule:nonzero;stroke:none"
         id="path440" /><path
         d="m 3599.26,2177.46 v 216.7 h 216.69 v -216.7 z m 263.12,263.13 h -309.56 v -309.56 h 309.56 v 309.56"
         style="fill:#17282f;fill-opacity:1;fill-rule:nonzero;stroke:none"
         id="path442" /><path
         d="m 3769.51,2223.9 v 123.83 H 3645.69 V 2223.9 h 123.82"
         style="fill:#bbab8e;fill-opacity:1;fill-rule:nonzero;stroke:none"
         id="path444" /><path
         d="m 2948.41,3260.93 v -216.69 h -216.7 v 216.69 z m -263.14,46.44 V 2997.8 h 309.57 v 309.57 h -309.57"
         style="fill:#17282f;fill-opacity:1;fill-rule:nonzero;stroke:none"
         id="path446" /><path
         d="m 2778.15,3214.49 v -123.82 h 123.82 v 123.82 h -123.82"
         style="fill:#bbab8e;fill-opacity:1;fill-rule:nonzero;stroke:none"
         id="path448" /><path
         d="m 2596.98,3091.55 c 0,73.3 0,146.58 0,219.87 0,20.5 3.45,39.9 17.43,56.04 15.64,18.03 37.08,24.97 60.26,24.97 39.86,0 79.73,0 119.59,0 37.2,0 74.39,0 111.6,0 8.9,0 8.91,13.83 0,13.83 -76.22,0 -152.43,0 -228.64,0 -19.59,0 -38.34,-2.89 -55.13,-13.92 -24.52,-16.13 -38.41,-43.09 -38.93,-72.21 -0.64,-36.17 0,-72.42 0,-108.6 0,-39.99 0,-79.98 0,-119.98 0,-8.89 13.82,-8.91 13.82,0"
         style="fill:#f2575d;fill-opacity:1;fill-rule:nonzero;stroke:none"
         id="path450" /><path
         d="m 2885.61,2026.49 c -73.29,0 -146.58,0 -219.87,0 -20.49,0 -39.9,3.43 -56.03,17.43 -18.03,15.63 -24.98,37.06 -24.98,60.25 0,39.87 0,79.73 0,119.59 0,37.2 0,74.4 0,111.59 0,8.9 -13.82,8.92 -13.82,0 0,-76.21 0,-152.42 0,-228.63 0,-19.6 2.89,-38.34 13.92,-55.13 16.12,-24.53 43.08,-38.41 72.2,-38.93 36.17,-0.64 72.42,0 108.61,0 39.99,0 79.98,0 119.97,0 8.89,0 8.91,13.83 0,13.83"
         style="fill:#f2575d;fill-opacity:1;fill-rule:nonzero;stroke:none"
         id="path452" /><path
         d="m 3944.02,2337.55 c 0,-73.3 0,-146.58 0,-219.87 0,-20.5 -3.43,-39.89 -17.43,-56.04 -15.63,-18.02 -37.07,-24.97 -60.25,-24.97 -39.86,0 -79.73,0 -119.59,0 -37.2,0 -74.4,0 -111.6,0 -8.9,0 -8.91,-13.83 0,-13.83 76.22,0 152.43,0 228.64,0 19.59,0 38.34,2.89 55.13,13.93 24.53,16.11 38.41,43.09 38.92,72.2 0.65,36.18 0,72.42 0,108.6 0,39.99 0,79.99 0,119.98 0,8.89 -13.82,8.91 -13.82,0"
         style="fill:#f2575d;fill-opacity:1;fill-rule:nonzero;stroke:none"
         id="path454" /><path
         d="m 3639.15,3392.43 c 73.28,0 146.57,0 219.86,0 20.5,0 39.9,-3.43 56.04,-17.43 18.03,-15.63 24.98,-37.06 24.98,-60.25 0,-39.86 0,-79.72 0,-119.59 0,-37.2 0,-74.4 0,-111.59 0,-8.9 13.82,-8.91 13.82,0 0,76.21 0,152.42 0,228.63 0,19.6 -2.89,38.34 -13.93,55.13 -16.11,24.53 -43.08,38.42 -72.19,38.93 -36.18,0.64 -72.43,0 -108.61,0 -39.99,0 -79.98,0 -119.97,0 -8.89,0 -8.91,-13.83 0,-13.83"
         style="fill:#f2575d;fill-opacity:1;fill-rule:nonzero;stroke:none"
         id="path456" /></g></g></svg>
